<?xml version="1.0" encoding="utf-8"?>
<!-- Generator: Adobe Illustrator 19.2.1, SVG Export Plug-In . SVG Version: 6.00 Build 0)  -->
<svg version="1.1" xmlns="http://www.w3.org/2000/svg" xmlns:xlink="http://www.w3.org/1999/xlink" x="0px" y="0px"
	 viewBox="0 0 115 48" style="enable-background:new 0 0 115 48;" xml:space="preserve">
<style type="text/css">
	.st0{fill:#111111;}
</style>
<g id="Layer_1">
	<g>
		<path class="st0" d="M11.1,37.2v-5h1v5c0,1.9,1,2.9,2.7,2.9c1.6,0,2.6-1,2.6-2.9v-5h1v5c0,2.5-1.4,3.8-3.6,3.8
			C12.5,40.9,11.1,39.6,11.1,37.2L11.1,37.2z"/>
		<path class="st0" d="M28.7,36.8c1.4,0,2.4-0.8,2.4-1.9v0c0-1.2-0.9-1.9-2.3-1.9h-2.2v3.8H28.7L28.7,36.8z M25.5,32.1h3.2
			c2,0,3.2,1,3.2,2.7v0c0,1.9-1.6,2.8-3.4,2.8h-2.1v3.1h-1V32.1L25.5,32.1z"/>
		<path class="st0" d="M42.4,36.5c1.3,0,2.2-0.7,2.2-1.8v0c0-1.1-0.8-1.7-2.2-1.7h-2.7v3.5H42.4L42.4,36.5z M38.8,32.1h3.7
			c1.1,0,1.9,0.3,2.5,0.9c0.4,0.4,0.7,1,0.7,1.7v0c0,1.4-1,2.3-2.4,2.5l2.7,3.5h-1.2l-2.5-3.4h0h-2.5v3.4h-1V32.1L38.8,32.1z"/>
		<polygon class="st0" points="52.7,32.1 53.7,32.1 53.7,40.8 52.7,40.8 52.7,32.1 		"/>
		<path class="st0" d="M60.6,39.5l0.6-0.7c0.9,0.8,1.8,1.2,3,1.2c1.2,0,1.9-0.6,1.9-1.5v0c0-0.8-0.4-1.3-2.3-1.6
			c-2-0.4-2.9-1.1-2.9-2.5v0c0-1.4,1.2-2.4,2.8-2.4c1.3,0,2.2,0.4,3,1.1l-0.6,0.8c-0.8-0.7-1.6-0.9-2.5-0.9c-1.1,0-1.8,0.6-1.8,1.4
			v0c0,0.8,0.4,1.3,2.4,1.7c1.9,0.4,2.8,1.1,2.8,2.5v0c0,1.5-1.2,2.5-3,2.5C62.8,40.9,61.7,40.5,60.6,39.5L60.6,39.5z"/>
		<polygon class="st0" points="74.2,32.1 75.2,32.1 75.2,40.8 74.2,40.8 74.2,32.1 		"/>
		<polygon class="st0" points="82.6,32.1 83.6,32.1 89,39.1 89,32.1 90,32.1 90,40.8 89.2,40.8 83.6,33.7 83.6,40.8 82.6,40.8 
			82.6,32.1 		"/>
		<path class="st0" d="M97,36.5L97,36.5c0-2.4,1.7-4.5,4.3-4.5c1.5,0,2.4,0.4,3.2,1.2l-0.6,0.7c-0.7-0.6-1.4-1-2.6-1
			c-1.9,0-3.3,1.6-3.3,3.6v0c0,2.1,1.3,3.6,3.4,3.6c1,0,1.9-0.4,2.5-0.9V37h-2.6v-0.9h3.6v3.5c-0.8,0.7-2,1.3-3.5,1.3
			C98.7,40.9,97,39,97,36.5L97,36.5z"/>
		<path class="st0" d="M15.6,12.7l-2-4.4l-2,4.4H15.6L15.6,12.7z M13.2,7.1h0.9l4,8.7H17l-1-2.3h-4.7l-1,2.3h-1L13.2,7.1L13.2,7.1z"
			/>
		<path class="st0" d="M28.4,11.6c1.3,0,2.2-0.7,2.2-1.8v0c0-1.1-0.8-1.7-2.2-1.7h-2.7v3.5H28.4L28.4,11.6z M24.7,7.2h3.7
			c1.1,0,1.9,0.3,2.5,0.9c0.4,0.4,0.7,1,0.7,1.7v0c0,1.4-1,2.3-2.4,2.5l2.7,3.5h-1.2l-2.5-3.4h0h-2.5v3.4h-1V7.2L24.7,7.2z"/>
		<polygon class="st0" points="40.8,8.1 37.9,8.1 37.9,7.2 44.7,7.2 44.7,8.1 41.8,8.1 41.8,15.9 40.8,15.9 40.8,8.1 		"/>
		<polygon class="st0" points="51.6,7.2 52.6,7.2 52.6,15.9 51.6,15.9 51.6,7.2 		"/>
		<polygon class="st0" points="60.1,7.2 66.3,7.2 66.3,8.1 61.1,8.1 61.1,11.2 65.8,11.2 65.8,12.1 61.1,12.1 61.1,15.9 60.1,15.9 
			60.1,7.2 		"/>
		<path class="st0" d="M77.8,12.7l-2-4.4l-2,4.4H77.8L77.8,12.7z M75.4,7.1h0.9l4,8.7h-1.1l-1-2.3h-4.7l-1,2.3h-1L75.4,7.1L75.4,7.1
			z"/>
		<path class="st0" d="M86,11.6L86,11.6c0-2.5,1.8-4.5,4.4-4.5c1.6,0,2.5,0.6,3.4,1.4l-0.7,0.7C92.4,8.5,91.6,8,90.4,8
			C88.5,8,87,9.5,87,11.5v0c0,2,1.4,3.6,3.4,3.6c1.2,0,2-0.5,2.8-1.3l0.6,0.6c-0.9,0.9-1.9,1.5-3.5,1.5C87.8,16,86,14.1,86,11.6
			L86,11.6z"/>
		<polygon class="st0" points="102.8,8.1 99.9,8.1 99.9,7.2 106.7,7.2 106.7,8.1 103.8,8.1 103.8,15.9 102.8,15.9 102.8,8.1 		"/>
		<polygon class="st0" points="115,24.4 0,24.4 0,23.6 115,23.6 115,24.4 		"/>
	</g>
</g>
<g id="Layer_2">
</g>
</svg>
