<?xml version="1.0" encoding="utf-8"?>
<!-- Generator: Adobe Illustrator 21.0.2, SVG Export Plug-In . SVG Version: 6.00 Build 0)  -->
<svg version="1.2" baseProfile="tiny" id="Layer_1" xmlns="http://www.w3.org/2000/svg" xmlns:xlink="http://www.w3.org/1999/xlink"
	 x="0px" y="0px" viewBox="0 0 1024 265" xml:space="preserve">
<path fill="#33CC66" d="M103.3,0h18.2c29.8,1.4,59.8,4.5,88.5,12.9c16.9,5,33.5,11.9,47.8,22.3c14,10,25.4,24.2,30.1,40.9
	c5.8,20.2,2.2,42-5.8,61.1c-12.4,29.5-33.6,54.6-57.6,75.5c-23.8,20.2-51.1,36.8-81.1,46c-10.6,3.3-21.6,5.4-32.7,6.4H93.4
	c-17.7-1.5-35.3-7.8-49-19.4C30.4,234,20.5,218,13.9,201C4.6,177,1.3,151.1,0,125.4v-21.9c1.2-18.9,4.1-39.1,16.1-54.4
	c5.9-7.5,14.3-12.7,23.4-15.2c-0.5,21-1,42-0.8,63c0.4,19.3,1.8,38.7,7.1,57.4c3.6,12.6,9.3,24.9,18.2,34.7
	c10.7,12.1,26.1,19.3,41.9,21.9c15.4,2.5,31.6,2.5,46.6-2.5c16.8-5.4,31.6-16.8,41.3-31.5c12.2-18,17.2-40.6,14-62
	c-2.6-18-11.2-35-23.8-48c-8.1-7.6-17.4-14.1-27.6-18.5c-15.9-6.8-34.1-8.5-50.9-3.9c0,13.5,0,27.1,0,40.6
	c16.2-7.4,37.4-4.8,50.2,8.1c16,16.5,16.1,45.2,0.9,62.2c-6.7,7.5-16.6,12-26.6,12.6c-10.4,0.6-21.5-0.8-30.5-6.6
	c-7.2-4.7-11.9-12.4-14.3-20.5c-3.3-10.7-3.7-21.9-3.9-33c0-26.7-0.1-53.4,0-80.1c0.4-7,0.1-14.6,4-20.8C89.2,1.4,96.9,0.7,103.3,0"
	/>
<g>
	<path fill="#384145" d="M876.5,39.9c9.7-3.5,19.3-6.9,29-10.4c0,39.9,0,79.7,0,119.6c-0.2,3.4,1,7.5,4.6,8.7
		c4.3,1.2,8.6-0.8,12.8-1.5c1.1,7,2.1,14,3,21c-11.2,4.3-24.1,6-35.5,1.2c-6.2-2.5-10.8-8.2-12.5-14.6c-1.9-6.1-1.4-12.6-1.4-18.9
		C876.5,110,876.5,74.9,876.5,39.9"/>
	<path fill="#384145" d="M623.4,76.5c7.4-2.4,15.6-2.3,23-0.1c7.3,2.3,13.2,8.1,16.2,15.1c3.8,8.6,4.7,18.2,4.6,27.6
		c0,20.3,0,40.6,0,60.9c-9.8,0-19.5,0-29.2,0c0-20.3,0-40.7,0-61c-0.1-5.2-0.6-10.9-4-15.1c-3.6-4.4-10.5-5.2-15.4-2.5
		c-5.3,2.9-9,8.1-12.1,13.1c-2.1,2.7-1.1,6.2-1.3,9.4c0.5,18.7,0.1,37.3,0.3,56c-9.8,0.1-19.7,0-29.5,0.1c0-34.6,0-69.2,0-103.8
		c9.1,0,18.2,0,27.3,0c0.4,4.9,0.2,9.7,0.7,14.6C609.6,85.1,615.6,79.1,623.4,76.5"/>
	<path fill="#384145" d="M803.8,79.8c10.2-6,22.9-6,34.1-3.1c10.9,2.8,19.9,10.6,25.8,20c-6.5,4.8-13.2,9.4-19.8,14.2
		c-3.2-4.6-7.5-8.7-13-10.4c-4.5-1.4-9.9-2.3-14.1,0.3c-3.5,2.3-5,8.9-0.4,10.9c10.4,4.9,22.3,5.9,32.5,11.2
		c7.5,3.5,14.7,9.7,16.1,18.2c1.7,11.1-1.6,23.3-10,31.1c-7.7,7.4-18.7,10.5-29.1,10.7c-8.5,0.1-17.2-0.9-24.8-4.7
		c-8-4.1-14.1-11.3-18.7-18.9c6.8-4.8,13.5-9.8,20.4-14.5c4.4,6.9,11.6,12.6,20.1,13.2c6,0.7,13.8-1.4,15.9-7.8
		c1.3-3.9-2.7-6.4-5.8-7.6c-11.9-4.6-25.2-6.1-36-13.5c-5.8-4-10-10.6-9.8-17.8C786.7,98.6,792.9,85.9,803.8,79.8"/>
	<path fill="#384145" d="M681.8,76.2c9.8,0.1,19.6,0,29.5,0c0,21.6,0,43.2,0,64.8c0.1,4.2,1,8.6,3.9,11.8c4.1,3.8,10.6,4.3,15.6,1.9
		c4.9-2.4,8.6-6.8,11.6-11.3c0.6-1.1,1.5-2.1,1.4-3.4c0.1-21.3-0.1-42.5,0.1-63.8c9.8,0.1,19.6,0,29.4,0c0,34.6,0,69.2,0,103.8
		c-8.8,0-17.7,0-26.5,0c-0.5-4.4-0.9-8.8-1.4-13.2c-4.7,3.8-8.7,8.5-14.2,11.3c-9,5.2-20.2,5.8-29.9,2.6
		c-7.5-2.5-13.1-8.9-15.7-16.1c-3.7-9.8-3.9-20.4-3.8-30.7C681.8,114.7,681.7,95.5,681.8,76.2"/>
	<path fill="#384145" d="M919.2,76.2c10.8,0,21.6,0,32.4,0c7.2,23.5,13.8,47.2,20.1,71c7.4-23.5,14.1-47.3,20.7-71
		c10.5,0,21.1,0,31.6,0v1.4c-14.8,41.3-29.9,82.5-44.8,123.7c-3.1,8.8-8.2,17.8-17.1,21.7c-11.9,5-25.3,3.2-37.3-0.3
		c1.3-7.9,2.7-15.9,4-23.8c4.4,0.8,8.7,2.2,13.1,2.5c4.4,0.2,7.5-3.7,9.3-7.3c2.8-6,4.8-12.3,7.1-18.5
		C945.4,142.6,932.3,109.4,919.2,76.2"/>
	<path fill="#384145" d="M562.5,111C559.4,98.9,552.1,87.4,541,81c-10.2-6-22.5-7.1-34.1-5.8c-11.1,1.5-21.7,7.2-28.7,16
		c-11,13.8-15,32.7-11.5,50c2.4,12.6,8.9,24.9,19.5,32.6c11.8,8.7,27.6,10.5,41.7,7.4c11.4-2.4,21.5-9.7,27.7-19.5
		C565,146.8,567,127.8,562.5,111z M528.5,150.5c-3.9,4.8-10.4,7.6-16.5,6.1c-5.7-1.3-10.1-5.8-12.8-10.8c-5.2-9.8-5.5-21.8-1.5-32.1
		c2.4-6.1,7.1-11.7,13.7-13.2c6.7-1.7,14.4,1,18.4,6.8c4.3,6,5.5,13.5,5.7,20.7C535.5,135.9,533.7,144.3,528.5,150.5z"/>
	<path fill="#384145" d="M457.8,128.9c-2-11.9-11.4-21.3-22.3-25.8c5.7-4.8,11.4-10.6,12.7-18.3c1.9-12-1.3-25.3-10.3-33.8
		c-10-9.7-24.4-13.1-38-13.5c-17.3-0.1-34.7,0-52-0.1c-0.1,47.5,0,95,0,142.5c21,0,42,0,63.1,0c11.5-0.5,23.6-2.7,33-9.9
		C456.5,160.7,459.7,143.6,457.8,128.9z M378,64.2c6.7,0,13.3,0,20,0c4.9,0,9.9,0.8,14,3.7c6,4,7.7,13,3.9,19c-2.7,4.2-8,5.9-12.8,6
		c-8.4,0.1-16.7,0-25.1,0C378,83.4,378,73.8,378,64.2z M427.3,138.8c-0.4,3.8-2,7.9-5.4,10c-4.4,2.7-9.8,3.2-14.8,3.4
		c-9.7,0-19.4,0-29.1,0c0-11,0-22,0-33c9.7,0,19.4,0,29.1,0c5.6,0.1,11.5,1.1,15.9,4.9C426.9,127.8,428,133.7,427.3,138.8z"/>
</g>
</svg>
