<svg width="24px" height="24px" viewBox="0 0 24 24" xmlns="http://www.w3.org/2000/svg"> <g stroke="#fff" stroke-width="1" fill-rule="evenodd"> <g transform="translate(-1099.000000, -3944.000000)" fill-rule="nonzero" > <path d="M1111,3955.29289 L1099.85355,3944.14645 C1099.65829,3943.95118 1099.34171,3943.95118 1099.14645,3944.14645 C1098.95118,3944.34171 1098.95118,3944.65829 1099.14645,3944.85355 L1110.29289,3956 L1099.14645,3967.14645 C1098.95118,3967.34171 1098.95118,3967.65829 1099.14645,3967.85355 C1099.34171,3968.04882 1099.65829,3968.04882 1099.85355,3967.85355 L1111,3956.70711 L1122.14645,3967.85355 C1122.34171,3968.04882 1122.65829,3968.04882 1122.85355,3967.85355 C1123.04882,3967.65829 1123.04882,3967.34171 1122.85355,3967.14645 L1111.70711,3956 L1122.85355,3944.85355 C1123.04882,3944.65829 1123.04882,3944.34171 1122.85355,3944.14645 C1122.65829,3943.95118 1122.34171,3943.95118 1122.14645,3944.14645 L1111,3955.29289 Z" id="icon-close"></path> </g> </g> </svg>
