<?xml version="1.0" encoding="UTF-8"?>
<svg width="45px" height="45px" viewBox="0 0 45 45" version="1.1" xmlns="http://www.w3.org/2000/svg" xmlns:xlink="http://www.w3.org/1999/xlink">
    <!-- Generator: Sketch 46.2 (44496) - http://www.bohemiancoding.com/sketch -->
    <title>logo-email-two-tone</title>
    <desc>Created with Sketch.</desc>
    <defs></defs>
    <g id="Hifi" stroke="none" stroke-width="1" fill="none" fill-rule="evenodd">
        <g id="our-customers-hifi" transform="translate(-368.000000, -605.000000)">
            <g id="Intro" transform="translate(0.000000, 102.000000)">
                <g id="Stats" transform="translate(240.000000, 503.000000)">
                    <g id="Stat">
                        <g id="logo-email-two-tone" transform="translate(128.000000, 0.000000)">
                            <g id="lines" stroke-width="1.75" stroke-linecap="round" stroke-linejoin="round">
                                <path d="M36.9215426,17.6230053 L44.1023936,22.5598404 L44.1023936,41.4095745 C44.1023936,42.8960106 42.8960106,44.1023936 41.4095745,44.1023936 L5.50531915,44.1023936 C4.01888298,44.1023936 2.8125,42.8960106 2.8125,41.4095745 L2.8125,22.5598404 L9.99335106,17.6230053" id="Shape" stroke="#E8F2FC"></path>
                                <polyline id="Shape" stroke="#E8F2FC" points="8.1981383 38.7167553 17.1742021 31.5359043 29.7406915 31.5359043 38.7167553 38.7167553"></polyline>
                                <path d="M44.1023936,22.5598404 L33.331117,29.7406915" id="Shape" stroke="#E8F2FC"></path>
                                <path d="M2.8125,22.5598404 L13.5837766,29.7406915" id="Shape" stroke="#E8F2FC"></path>
                                <polyline id="Shape" stroke="#E8F2FC" points="36.9215426 27.3476729 36.9215426 2.8125 9.99335106 2.8125 9.99335106 27.3476729"></polyline>
                                <circle id="Oval" stroke="#E8F2FC" cx="23.4574468" cy="17.2340426" r="3.16136968"></circle>
                                <path d="M28.0226729,23.9086436 C26.724734,24.7990691 25.1503324,25.3125 23.4574468,25.3125 C18.9963431,25.3125 15.3789894,21.6951463 15.3789894,17.2340426 C15.3789894,12.7729388 18.9963431,9.15558511 23.4574468,9.15558511 C27.9185505,9.15558511 31.5359043,12.7729388 31.5359043,17.2340426 L31.5359043,17.937766 C31.5359043,19.2949468 30.4354388,20.3954122 29.078258,20.3954122 C27.7192819,20.3954122 26.6188165,19.2949468 26.6188165,17.937766 L26.6188165,17.2340426" id="Shape" stroke="#E8F2FC"></path>
                                <path d="M35.0066489,15.7081117 L42.1875,20.6449468 L42.1875,39.4946809 C42.1875,40.981117 40.981117,42.1875 39.4946809,42.1875 L3.59042553,42.1875 C2.10398936,42.1875 0.897606383,40.981117 0.897606383,39.4946809 L0.897606383,20.6449468 L8.07845745,15.7081117" id="Shape" stroke="#489BE8"></path>
                                <polyline id="Shape" stroke="#489BE8" points="6.28324468 36.8018617 15.2593085 29.6210106 27.8257979 29.6210106 36.8018617 36.8018617"></polyline>
                                <path d="M42.1875,20.6449468 L31.4162234,27.8257979" id="Shape" stroke="#489BE8"></path>
                                <path d="M0.897606383,20.6449468 L11.668883,27.8257979" id="Shape" stroke="#489BE8"></path>
                                <polyline id="Shape" stroke="#489BE8" points="35.0066489 25.4327793 35.0066489 0.897606383 8.07845745 0.897606383 8.07845745 25.4327793"></polyline>
                                <circle id="Oval" stroke="#489BE8" cx="21.5425532" cy="15.3191489" r="3.16136968"></circle>
                                <path d="M26.1077793,21.99375 C24.8098404,22.8841755 23.2354388,23.3976064 21.5425532,23.3976064 C17.0814495,23.3976064 13.4640957,19.7802527 13.4640957,15.3191489 C13.4640957,10.8580452 17.0814495,7.24069149 21.5425532,7.24069149 C26.0036569,7.24069149 29.6210106,10.8580452 29.6210106,15.3191489 L29.6210106,16.0228723 C29.6210106,17.3800532 28.5205452,18.4805186 27.1633644,18.4805186 C25.8043883,18.4805186 24.7039229,17.3800532 24.7039229,16.0228723 L24.7039229,15.3191489" id="Shape" stroke="#489BE8"></path>
                            </g>
                            <g id="Invisible_Shape">
                                <rect id="Rectangle-path" x="0" y="0" width="45" height="45"></rect>
                            </g>
                        </g>
                    </g>
                </g>
            </g>
        </g>
    </g>
</svg>