<?xml version="1.0" encoding="UTF-8" standalone="no"?>
<svg width="1089px" height="124px" viewBox="0 0 1089 124" version="1.1" xmlns="http://www.w3.org/2000/svg" xmlns:xlink="http://www.w3.org/1999/xlink">
    <!-- Generator: Sketch 40.3 (33839) - http://www.bohemiancoding.com/sketch -->
    <title>HappyGrasshopper</title>
    <desc>Created with Sketch.</desc>
    <defs>
        <polygon id="path-1" points="30.883 0.204 0.06 0.204 0.06 96.731 61.706 96.731 61.706 0.204 30.883 0.204"></polygon>
    </defs>
    <g id="Page-1" stroke="none" stroke-width="1" fill="none" fill-rule="evenodd">
        <g id="HappyGrasshopper">
            <g id="Group-3">
                <mask id="mask-2" fill="white">
                    <use xlink:href="#path-1"></use>
                </mask>
                <g id="Clip-2"></g>
                <path d="M0,0.204 L17.347,0.204 L17.347,34.129 C20.761,31.185 24.196,28.977 27.652,27.504 C31.109,26.033 34.607,25.296 38.15,25.296 C45.063,25.296 50.888,27.686 55.625,32.465 C59.679,36.604 61.706,42.685 61.706,50.707 L61.706,96.731 L44.487,96.731 L44.487,66.198 C44.487,58.132 44.103,52.67 43.335,49.811 C42.567,46.954 41.255,44.818 39.398,43.41 C37.542,42.002 35.247,41.299 32.517,41.299 C28.974,41.299 25.934,42.473 23.395,44.818 C20.856,47.165 19.096,50.366 18.115,54.42 C17.603,56.511 17.347,61.292 17.347,68.758 L17.347,96.731 L0,96.731 L0,0.204" id="Fill-1" fill="#E46D2D" mask="url(#mask-2)"></path>
            </g>
            <path d="M101.147,41.427 C95.745,41.427 91.259,43.336 87.687,47.156 C84.114,50.974 82.327,55.871 82.327,61.845 C82.327,67.862 84.145,72.814 87.781,76.695 C91.418,80.579 95.894,82.521 101.21,82.521 C106.698,82.521 111.248,80.612 114.862,76.792 C118.477,72.973 120.285,67.97 120.285,61.782 C120.285,55.722 118.477,50.815 114.862,47.06 C111.248,43.304 106.676,41.427 101.147,41.427 L101.147,41.427 Z M119.517,27.088 L136.992,27.088 L136.992,96.731 L119.517,96.731 L119.517,89.369 C116.107,92.613 112.686,94.95 109.255,96.379 C105.824,97.808 102.106,98.524 98.099,98.524 C89.105,98.524 81.326,95.036 74.762,88.058 C68.198,81.081 64.917,72.408 64.917,62.038 C64.917,51.284 68.092,42.473 74.443,35.601 C80.794,28.73 88.509,25.296 97.588,25.296 C101.764,25.296 105.686,26.086 109.351,27.663 C113.016,29.242 116.405,31.612 119.517,34.77 L119.517,27.088 L119.517,27.088 Z" id="Fill-4" fill="#E46D2D"></path>
            <path d="M179.889,41.427 C174.384,41.427 169.817,43.304 166.191,47.06 C162.564,50.815 160.75,55.722 160.75,61.782 C160.75,67.97 162.564,72.973 166.191,76.792 C169.817,80.612 174.384,82.521 179.889,82.521 C185.223,82.521 189.715,80.579 193.363,76.695 C197.012,72.814 198.836,67.862 198.836,61.845 C198.836,55.871 197.044,50.974 193.459,47.156 C189.875,43.336 185.351,41.427 179.889,41.427 L179.889,41.427 Z M161.518,27.088 L161.518,34.77 C164.676,31.612 168.089,29.242 171.76,27.663 C175.43,26.086 179.355,25.296 183.538,25.296 C192.627,25.296 200.35,28.73 206.71,35.601 C213.068,42.473 216.247,51.284 216.247,62.038 C216.247,72.408 212.96,81.081 206.389,88.058 C199.818,95.036 192.029,98.524 183.026,98.524 C179.014,98.524 175.281,97.808 171.824,96.379 C168.367,94.95 164.932,92.613 161.518,89.369 L161.518,122.208 L144.172,122.208 L144.172,27.088 L161.518,27.088 L161.518,27.088 Z" id="Fill-5" fill="#E46D2D"></path>
            <path d="M255.944,41.427 C250.439,41.427 245.872,43.304 242.245,47.06 C238.618,50.815 236.805,55.722 236.805,61.782 C236.805,67.97 238.618,72.973 242.245,76.792 C245.872,80.612 250.439,82.521 255.944,82.521 C261.278,82.521 265.77,80.579 269.417,76.695 C273.067,72.814 274.891,67.862 274.891,61.845 C274.891,55.871 273.098,50.974 269.514,47.156 C265.929,43.336 261.406,41.427 255.944,41.427 L255.944,41.427 Z M237.573,27.088 L237.573,34.77 C240.731,31.612 244.143,29.242 247.814,27.663 C251.484,26.086 255.409,25.296 259.592,25.296 C268.682,25.296 276.405,28.73 282.764,35.601 C289.122,42.473 292.301,51.284 292.301,62.038 C292.301,72.408 289.015,81.081 282.444,88.058 C275.872,95.036 268.083,98.524 259.08,98.524 C255.069,98.524 251.335,97.808 247.878,96.379 C244.422,94.95 240.987,92.613 237.573,89.369 L237.573,122.208 L220.226,122.208 L220.226,27.088 L237.573,27.088 L237.573,27.088 Z" id="Fill-6" fill="#E46D2D"></path>
            <polyline id="Fill-7" fill="#E46D2D" points="289.864 27.088 307.721 27.088 325.811 70.786 345.773 27.088 363.681 27.088 320.064 122.208 302.017 122.208 316.337 91.535 289.864 27.088"></polyline>
            <path d="M404.363,41.618 C398.858,41.618 394.313,43.464 390.729,47.156 C387.144,50.846 385.352,55.487 385.352,61.077 C385.352,66.88 387.186,71.64 390.857,75.352 C394.527,79.065 399.136,80.92 404.683,80.92 C410.102,80.92 414.572,79.107 418.094,75.48 C421.613,71.853 423.374,67.094 423.374,61.205 C423.374,55.403 421.603,50.687 418.061,47.06 C414.518,43.432 409.953,41.618 404.363,41.618 L404.363,41.618 Z M422.478,27.088 L439.889,27.088 L439.889,86.746 C439.889,98.524 437.52,107.186 432.784,112.734 C426.424,120.245 416.845,124 404.043,124 C397.215,124 391.475,123.145 386.824,121.439 C382.173,119.733 378.247,117.224 375.046,113.918 C371.846,110.61 369.477,106.589 367.941,101.852 L387.208,101.852 C388.914,103.813 391.113,105.298 393.801,106.301 C396.49,107.303 399.668,107.804 403.339,107.804 C408.033,107.804 411.81,107.079 414.669,105.628 C417.527,104.177 419.544,102.299 420.717,99.995 C421.891,97.691 422.478,93.722 422.478,88.089 C419.405,91.162 416.183,93.371 412.812,94.715 C409.441,96.06 405.621,96.731 401.355,96.731 C392.009,96.731 384.114,93.36 377.671,86.618 C371.227,79.875 368.005,71.341 368.005,61.014 C368.005,49.961 371.419,41.085 378.247,34.385 C384.434,28.326 391.817,25.296 400.394,25.296 C404.405,25.296 408.193,26.033 411.756,27.504 C415.319,28.977 418.893,31.398 422.478,34.77 L422.478,27.088 L422.478,27.088 Z" id="Fill-8" fill="#6BB646"></path>
            <path d="M444.282,27.088 L459.261,27.088 L459.261,35.857 C460.882,32.4 463.037,29.777 465.726,27.984 C468.414,26.192 471.359,25.296 474.559,25.296 C476.821,25.296 479.189,25.894 481.664,27.088 L476.223,42.13 C474.175,41.106 472.489,40.594 471.167,40.594 C468.478,40.594 466.205,42.258 464.35,45.586 C462.493,48.915 461.565,55.444 461.565,65.174 L461.629,68.567 L461.629,96.731 L444.282,96.731 L444.282,27.088" id="Fill-9" fill="#6BB646"></path>
            <path d="M512.587,41.427 C507.185,41.427 502.699,43.336 499.126,47.156 C495.554,50.974 493.767,55.871 493.767,61.845 C493.767,67.862 495.584,72.814 499.221,76.695 C502.857,80.579 507.333,82.521 512.65,82.521 C518.137,82.521 522.687,80.612 526.302,76.792 C529.917,72.973 531.725,67.97 531.725,61.782 C531.725,55.722 529.917,50.815 526.302,47.06 C522.687,43.304 518.116,41.427 512.587,41.427 L512.587,41.427 Z M530.957,27.088 L548.432,27.088 L548.432,96.731 L530.957,96.731 L530.957,89.369 C527.547,92.613 524.125,94.95 520.695,96.379 C517.263,97.808 513.545,98.524 509.538,98.524 C500.544,98.524 492.766,95.036 486.202,88.058 C479.637,81.081 476.356,72.408 476.356,62.038 C476.356,51.284 479.531,42.473 485.882,35.601 C492.233,28.73 499.948,25.296 509.027,25.296 C513.204,25.296 517.125,26.086 520.79,27.663 C524.456,29.242 527.844,31.612 530.957,34.77 L530.957,27.088 L530.957,27.088 Z" id="Fill-10" fill="#6BB646"></path>
            <path d="M599.553,36.818 L588.736,47.635 C584.34,43.282 580.35,41.106 576.765,41.106 C574.802,41.106 573.266,41.523 572.156,42.354 C571.047,43.187 570.492,44.221 570.492,45.458 C570.492,46.397 570.844,47.262 571.548,48.052 C572.253,48.841 573.991,49.919 576.765,51.284 L583.166,54.485 C589.908,57.813 594.538,61.205 597.057,64.661 C599.575,68.118 600.833,72.174 600.833,76.823 C600.833,83.011 598.56,88.176 594.016,92.314 C589.471,96.453 583.379,98.524 575.741,98.524 C565.584,98.524 557.477,94.555 551.417,86.618 L562.171,74.903 C564.219,77.295 566.62,79.224 569.371,80.697 C572.125,82.169 574.566,82.905 576.702,82.905 C579.006,82.905 580.862,82.351 582.27,81.241 C583.678,80.131 584.383,78.851 584.383,77.4 C584.383,74.712 581.843,72.087 576.765,69.526 L570.876,66.582 C559.61,60.908 553.977,53.802 553.977,45.267 C553.977,39.762 556.1,35.057 560.347,31.153 C564.592,27.248 570.023,25.296 576.637,25.296 C581.16,25.296 585.417,26.289 589.407,28.272 C593.396,30.257 596.779,33.105 599.553,36.818" id="Fill-11" fill="#6BB646"></path>
            <path d="M647.657,36.818 L636.838,47.635 C632.443,43.282 628.454,41.106 624.869,41.106 C622.906,41.106 621.37,41.523 620.26,42.354 C619.149,43.187 618.596,44.221 618.596,45.458 C618.596,46.397 618.949,47.262 619.652,48.052 C620.357,48.841 622.094,49.919 624.869,51.284 L631.27,54.485 C638.013,57.813 642.642,61.205 645.159,64.661 C647.677,68.118 648.937,72.174 648.937,76.823 C648.937,83.011 646.664,88.176 642.12,92.314 C637.575,96.453 631.484,98.524 623.845,98.524 C613.689,98.524 605.579,94.555 599.521,86.618 L610.275,74.903 C612.323,77.295 614.724,79.224 617.475,80.697 C620.229,82.169 622.671,82.905 624.804,82.905 C627.109,82.905 628.966,82.351 630.374,81.241 C631.782,80.131 632.485,78.851 632.485,77.4 C632.485,74.712 629.947,72.087 624.869,69.526 L618.98,66.582 C607.714,60.908 602.081,53.802 602.081,45.267 C602.081,39.762 604.204,35.057 608.451,31.153 C612.696,27.248 618.125,25.296 624.741,25.296 C629.263,25.296 633.521,26.289 637.512,28.272 C641.501,30.257 644.881,33.105 647.657,36.818" id="Fill-12" fill="#6BB646"></path>
            <path d="M650.965,0.204 L668.311,0.204 L668.311,34.129 C671.725,31.185 675.159,28.977 678.617,27.504 C682.072,26.033 685.571,25.296 689.115,25.296 C696.028,25.296 701.852,27.686 706.589,32.465 C710.643,36.604 712.671,42.685 712.671,50.707 L712.671,96.731 L695.451,96.731 L695.451,66.198 C695.451,58.132 695.067,52.67 694.299,49.811 C693.531,46.954 692.219,44.818 690.362,43.41 C688.506,42.002 686.211,41.299 683.482,41.299 C679.938,41.299 676.897,42.473 674.359,44.818 C671.821,47.165 670.06,50.366 669.079,54.42 C668.567,56.511 668.311,61.292 668.311,68.758 L668.311,96.731 L650.965,96.731 L650.965,0.204" id="Fill-13" fill="#6BB646"></path>
            <path d="M752.34,41.746 C746.912,41.746 742.39,43.634 738.78,47.412 C735.167,51.188 733.36,56.021 733.36,61.91 C733.36,67.97 735.145,72.877 738.715,76.632 C742.283,80.388 746.804,82.265 752.276,82.265 C757.747,82.265 762.3,80.367 765.933,76.567 C769.566,72.769 771.384,67.884 771.384,61.91 C771.384,55.936 769.597,51.082 766.029,47.347 C762.46,43.614 757.897,41.746 752.34,41.746 L752.34,41.746 Z M752.051,25.296 C758.623,25.296 764.799,26.938 770.582,30.224 C776.366,33.512 780.878,37.97 784.121,43.603 C787.364,49.236 788.986,55.316 788.986,61.845 C788.986,68.417 787.353,74.562 784.09,80.28 C780.824,86 776.375,90.47 770.742,93.691 C765.109,96.911 758.901,98.524 752.116,98.524 C742.13,98.524 733.607,94.971 726.543,87.867 C719.48,80.76 715.949,72.129 715.949,61.973 C715.949,51.091 719.94,42.024 727.92,34.77 C734.919,28.454 742.963,25.296 752.051,25.296 L752.051,25.296 Z" id="Fill-14" fill="#6BB646"></path>
            <path d="M829.277,41.427 C823.772,41.427 819.206,43.304 815.579,47.06 C811.952,50.815 810.137,55.722 810.137,61.782 C810.137,67.97 811.952,72.973 815.579,76.792 C819.206,80.612 823.772,82.521 829.277,82.521 C834.611,82.521 839.103,80.579 842.751,76.695 C846.4,72.814 848.224,67.862 848.224,61.845 C848.224,55.871 846.432,50.974 842.847,47.156 C839.263,43.336 834.739,41.427 829.277,41.427 L829.277,41.427 Z M810.905,27.088 L810.905,34.77 C814.063,31.612 817.477,29.242 821.147,27.663 C824.817,26.086 828.743,25.296 832.925,25.296 C842.016,25.296 849.738,28.73 856.098,35.601 C862.455,42.473 865.635,51.284 865.635,62.038 C865.635,72.408 862.349,81.081 855.777,88.058 C849.206,95.036 841.417,98.524 832.413,98.524 C828.401,98.524 824.668,97.808 821.212,96.379 C817.755,94.95 814.319,92.613 810.905,89.369 L810.905,122.208 L793.559,122.208 L793.559,27.088 L810.905,27.088 L810.905,27.088 Z" id="Fill-15" fill="#6BB646"></path>
            <path d="M905.987,41.427 C900.482,41.427 895.916,43.304 892.289,47.06 C888.662,50.815 886.847,55.722 886.847,61.782 C886.847,67.97 888.662,72.973 892.289,76.792 C895.916,80.612 900.482,82.521 905.987,82.521 C911.322,82.521 915.813,80.579 919.461,76.695 C923.111,72.814 924.934,67.862 924.934,61.845 C924.934,55.871 923.142,50.974 919.558,47.156 C915.973,43.336 911.45,41.427 905.987,41.427 L905.987,41.427 Z M887.615,27.088 L887.615,34.77 C890.773,31.612 894.187,29.242 897.857,27.663 C901.527,26.086 905.453,25.296 909.635,25.296 C918.726,25.296 926.448,28.73 932.809,35.601 C939.165,42.473 942.345,51.284 942.345,62.038 C942.345,72.408 939.059,81.081 932.488,88.058 C925.916,95.036 918.127,98.524 909.123,98.524 C905.112,98.524 901.379,97.808 897.922,96.379 C894.466,94.95 891.029,92.613 887.615,89.369 L887.615,122.208 L870.27,122.208 L870.27,27.088 L887.615,27.088 L887.615,27.088 Z" id="Fill-16" fill="#6BB646"></path>
            <path d="M998.622,53.204 C997.466,49.321 995.192,46.163 991.793,43.731 C988.394,41.299 984.451,40.081 979.963,40.081 C975.089,40.081 970.814,41.449 967.138,44.178 C964.83,45.885 962.693,48.895 960.728,53.204 L998.622,53.204 L998.622,53.204 Z M1016.1,66.966 L959.96,66.966 C960.769,71.918 962.936,75.853 966.456,78.777 C969.977,81.699 974.467,83.161 979.931,83.161 C986.458,83.161 992.071,80.879 996.765,76.311 L1011.49,83.224 C1007.82,88.432 1003.42,92.282 998.301,94.78 C993.18,97.275 987.1,98.524 980.057,98.524 C969.133,98.524 960.237,95.078 953.366,88.186 C946.496,81.295 943.061,72.664 943.061,62.294 C943.061,51.668 946.484,42.846 953.335,35.825 C960.183,28.806 968.771,25.296 979.098,25.296 C990.065,25.296 998.984,28.806 1005.85,35.825 C1012.72,42.846 1016.16,52.115 1016.16,63.637 L1016.1,66.966 L1016.1,66.966 Z" id="Fill-17" fill="#6BB646"></path>
            <path d="M1016.71,27.088 L1031.68,27.088 L1031.68,35.857 C1033.31,32.4 1035.46,29.777 1038.15,27.984 C1040.84,26.192 1043.78,25.296 1046.98,25.296 C1049.24,25.296 1051.61,25.894 1054.09,27.088 L1048.65,42.13 C1046.6,41.106 1044.91,40.594 1043.59,40.594 C1040.9,40.594 1038.63,42.258 1036.77,45.586 C1034.92,48.915 1033.99,55.444 1033.99,65.174 L1034.05,68.567 L1034.05,96.731 L1016.71,96.731 L1016.71,27.088" id="Fill-18" fill="#6BB646"></path>
            <path d="M1069.2,79.221 L1070.49,79.221 C1072.12,79.221 1073.09,78.405 1073.09,77.139 C1073.09,75.809 1072.19,75.143 1070.69,75.123 C1069.89,75.123 1069.44,75.186 1069.2,75.229 L1069.2,79.221 L1069.2,79.221 Z M1065.96,72.997 C1067.02,72.826 1068.58,72.697 1070.32,72.697 C1072.47,72.697 1073.97,73.019 1075,73.834 C1075.86,74.521 1076.33,75.53 1076.33,76.86 C1076.33,78.706 1075.02,79.972 1073.77,80.422 L1073.77,80.487 C1074.78,80.894 1075.34,81.86 1075.71,83.191 C1076.16,84.821 1076.61,86.709 1076.89,87.267 L1073.54,87.267 C1073.3,86.86 1072.96,85.679 1072.53,83.898 C1072.14,82.096 1071.52,81.602 1070.19,81.58 L1069.2,81.58 L1069.2,87.267 L1065.96,87.267 L1065.96,72.997 L1065.96,72.997 Z" id="Fill-19" fill="#434342"></path>
            <path d="M1071.43,66.63 C1064.06,66.63 1058.07,72.621 1058.07,79.983 C1058.07,87.345 1064.06,93.334 1071.43,93.334 C1078.79,93.334 1084.78,87.345 1084.78,79.983 C1084.78,72.621 1078.79,66.63 1071.43,66.63 L1071.43,66.63 Z M1071.43,96.719 C1062.2,96.719 1054.69,89.212 1054.69,79.983 C1054.69,70.754 1062.2,63.246 1071.43,63.246 C1080.65,63.246 1088.16,70.754 1088.16,79.983 C1088.16,89.212 1080.65,96.719 1071.43,96.719 L1071.43,96.719 Z" id="Fill-20" fill="#434342"></path>
        </g>
    </g>
</svg>