<?xml version="1.0" encoding="UTF-8"?>
<svg width="36px" height="45px" viewBox="0 0 36 45" version="1.1" xmlns="http://www.w3.org/2000/svg" xmlns:xlink="http://www.w3.org/1999/xlink">
    <!-- Generator: Sketch 46.2 (44496) - http://www.bohemiancoding.com/sketch -->
    <title>icon-globe-two-tone</title>
    <desc>Created with Sketch.</desc>
    <defs></defs>
    <g id="Hifi" stroke="none" stroke-width="1" fill="none" fill-rule="evenodd">
        <g id="our-customers-hifi" transform="translate(-1033.000000, -605.000000)">
            <g id="Intro" transform="translate(0.000000, 102.000000)">
                <g id="Stats" transform="translate(240.000000, 503.000000)">
                    <g id="Stat" transform="translate(660.000000, 0.000000)">
                        <g id="icon-globe-two-tone" transform="translate(128.000000, 0.000000)">
                            <g id="lines" transform="translate(5.744681, 0.000000)" stroke-width="1.75" stroke-linecap="round" stroke-linejoin="round">
                                <circle id="Oval" stroke="#E8F2FC" cx="19.8670213" cy="16.2765957" r="12.5664894"></circle>
                                <path d="M20.4522606,3.7262633 C20.4522606,3.7262633 22.184641,6.23238032 21.4109043,8.55179521 C19.4810505,9.70791223 19.0950798,12.4132979 19.4810505,12.0273271 C19.8670213,11.6395612 21.7986702,12.7992686 21.7986702,12.7992686 C22.5742021,12.7992686 22.9583777,11.6413564 22.9583777,11.6413564 C24.8918218,11.6413564 24.1180851,15.8924202 24.5022606,16.2765957 C24.8900266,16.6643617 26.0479388,15.890625 26.049734,17.0521277 C26.0479388,18.2100399 25.6583777,18.9801862 25.6583777,18.9801862 C27.593617,20.9136303 25.6601729,22.8470745 25.2759973,23.23125 C24.8864362,23.619016 22.5724069,22.843484 22.1828457,22.4557181 C21.7986702,22.0733378 21.796875,21.3013963 21.4073138,20.9136303 C21.0231383,20.5294548 19.4792553,20.5294548 19.4792553,20.5294548 C17.9371676,18.9819814 17.1616356,20.5294548 16.000133,21.687367 C14.8404255,22.8488697 13.2983378,21.3049867 13.2983378,21.3049867 C13.2983378,21.3049867 10.5965426,18.5942154 12.1386303,16.2765957 C13.6843085,13.9535904 14.4598404,14.7309176 14.4598404,14.7309176 C16.0019282,14.7309176 16.7774601,12.4115027 17.5494016,11.6395612 C17.5494016,11.6395612 15.2317819,8.55 14.8422207,9.70970745 C14.45625,10.8658245 13.4670878,11.2625665 12.5281915,10.4798537 C11.2069149,9.38656915 13.9643617,5.17679521 13.9643617,5.17679521" id="Shape" stroke="#E8F2FC"></path>
                                <path d="M10.8909574,7.30053191 L6.40292553,2.8125" id="Shape" stroke="#E8F2FC"></path>
                                <path d="M8.1981383,44.1023936 C8.1981383,41.6232048 13.8243351,38.7167553 20.7646277,38.7167553 C27.7049202,38.7167553 33.331117,41.6232048 33.331117,44.1023936 L8.1981383,44.1023936 Z" id="Shape" stroke="#E8F2FC"></path>
                                <path d="M28.8430851,25.2526596 L34.2287234,30.6382979 C34.2287234,39.6143617 20.7646277,38.7167553 20.7646277,38.7167553" id="Shape" stroke="#E8F2FC"></path>
                                <path d="M31.9272606,28.3350399 C25.2670213,34.9952793 14.4670213,34.9952793 7.80857713,28.3350399 C1.14654255,21.6765957 1.14654255,10.8765957 7.80857713,4.21635638" id="Shape" stroke="#E8F2FC"></path>
                                <circle id="Oval" stroke="#489BE8" cx="17.9521277" cy="14.3617021" r="12.5664894"></circle>
                                <path d="M18.537367,1.81136968 C18.537367,1.81136968 20.2697473,4.3174867 19.4960106,6.6369016 C17.5661569,7.79301862 17.1801862,10.4984043 17.5661569,10.1124335 C17.9521277,9.72466755 19.8837766,10.884375 19.8837766,10.884375 C20.6593085,10.884375 21.043484,9.72646277 21.043484,9.72646277 C22.9769282,9.72646277 22.2031915,13.9775266 22.587367,14.3617021 C22.975133,14.7494681 24.1330452,13.9757314 24.1348404,15.137234 C24.1330452,16.2951463 23.743484,17.0652926 23.743484,17.0652926 C25.6787234,18.9987367 23.7452793,20.9321809 23.3611037,21.3163564 C22.9715426,21.7041223 20.6575133,20.9285904 20.2679521,20.5408245 C19.8837766,20.1584441 19.8819814,19.3865027 19.4924202,18.9987367 C19.1082447,18.6145612 17.5643617,18.6145612 17.5643617,18.6145612 C16.0222739,17.0670878 15.246742,18.6145612 14.0852394,19.7724734 C12.9255319,20.9339761 11.3834441,19.3900931 11.3834441,19.3900931 C11.3834441,19.3900931 8.68164894,16.6793218 10.2237367,14.3617021 C11.7694149,12.0386968 12.5449468,12.8160239 12.5449468,12.8160239 C14.0870346,12.8160239 14.8625665,10.496609 15.634508,9.72466755 C15.634508,9.72466755 13.3168883,6.63510638 12.9273271,7.79481383 C12.5413564,8.95093085 11.5521941,9.34767287 10.6132979,8.56496011 C9.29202128,7.47167553 12.0494681,3.2619016 12.0494681,3.2619016" id="Shape" stroke="#489BE8"></path>
                                <path d="M8.97606383,5.3856383 L4.48803191,0.897606383" id="Shape" stroke="#489BE8"></path>
                                <path d="M6.28324468,42.1875 C6.28324468,39.7083112 11.9094415,36.8018617 18.849734,36.8018617 C25.7900266,36.8018617 31.4162234,39.7083112 31.4162234,42.1875 L6.28324468,42.1875 Z" id="Shape" stroke="#489BE8"></path>
                                <path d="M26.9281915,23.337766 L32.3138298,28.7234043 C32.3138298,37.6994681 18.849734,36.8018617 18.849734,36.8018617" id="Shape" stroke="#489BE8"></path>
                                <path d="M30.012367,26.4201463 C23.3521277,33.0803856 12.5521277,33.0803856 5.89368351,26.4201463 C-0.768351064,19.7617021 -0.768351064,8.96170213 5.89368351,2.30146277" id="Shape" stroke="#489BE8"></path>
                            </g>
                            <g id="invisible_shape">
                                <rect id="Rectangle-path" x="0" y="0" width="45" height="45"></rect>
                            </g>
                        </g>
                    </g>
                </g>
            </g>
        </g>
    </g>
</svg>