<?xml version="1.0" encoding="UTF-8"?>
<svg width="16px" height="16px" viewBox="0 0 16 16" version="1.1" xmlns="http://www.w3.org/2000/svg" xmlns:xlink="http://www.w3.org/1999/xlink">
    <title>icon-linkedin-circle</title>
    <defs></defs>
    <g id="Symbols" stroke="none" stroke-width="1" fill="none" fill-rule="evenodd">
        <g id="Footer" transform="translate(-162.000000, -385.000000)" fill="#FFFFFF">
            <g id="Social_Icons">
                <g transform="translate(135.000000, 385.000000)">
                    <g id="icon-linkedin-circle" transform="translate(27.000000, 0.000000)">
                        <path d="M8,16 C3.581722,16 0,12.418278 0,8 C0,3.581722 3.581722,0 8,0 C12.418278,0 16,3.581722 16,8 C16,12.418278 12.418278,16 8,16 Z M12.5,12 L12.5,8.97816482 C12.5,7.29487097 11.5205198,6.51315874 10.2743415,6.51315874 C9.26893227,6.51315874 8.6392286,7.04539924 8.52281279,7.41832618 L8.52281279,6.56540949 L6.55221072,6.56540949 C6.57761054,7.01824934 6.55221072,12 6.55221072,12 L8.52281279,12 L8.52281279,9.05910226 C8.52281279,8.89569059 8.51487535,8.73227893 8.56567498,8.61497087 C8.70114064,8.28814753 8.99218015,7.9490299 9.51552211,7.9490299 C10.1997295,7.9490299 10.5108772,8.4515592 10.5108772,9.18768009 L10.5108772,12 L12.5,12 Z M4.55938382,5.88563745 C5.2187206,5.88563745 5.62935089,5.46865595 5.62935089,4.94205033 C5.61665099,4.40571172 5.2187206,4 4.57155456,4 C3.92438852,4 3.5,4.40673625 3.5,4.94358712 C3.5,5.47019274 3.91168862,5.88563745 4.54668391,5.88563745 L4.55938382,5.88563745 Z M3.72648166,12 L5.48118532,12 L5.48118532,6.56540949 L3.72648166,6.56540949 L3.72648166,12 Z" id="Combined-Shape"></path>
                    </g>
                </g>
            </g>
        </g>
    </g>
</svg>
