<?xml version="1.0" encoding="UTF-8"?>
<svg width="16px" height="16px" viewBox="0 0 16 16" version="1.1" xmlns="http://www.w3.org/2000/svg" xmlns:xlink="http://www.w3.org/1999/xlink">
    <title>icon-github-circle</title>
    <defs></defs>
    <g id="Symbols" stroke="none" stroke-width="1" fill="none" fill-rule="evenodd">
        <g id="Footer" transform="translate(-243.000000, -385.000000)" fill-rule="nonzero" fill="#FFFFFF">
            <g id="Social_Icons">
                <g transform="translate(135.000000, 385.000000)">
                    <g id="icon-github-circle" transform="translate(108.000000, 0.000000)">
                        <path d="M8,0 C3.59384615,0 0,3.67586843 0,8.20193772 C0,11.8277943 2.28923077,14.903521 5.46461538,15.978775 C5.88307692,16.0537927 6.00615385,15.8037337 6.00615385,15.6036864 C6.00615385,15.4036391 6.00615385,14.8785151 6.00615385,14.2033556 C3.79076923,14.7034737 3.32307692,13.1030956 3.32307692,13.1030956 C2.95384615,12.1528711 2.41230769,11.9028121 2.41230769,11.9028121 C1.69846154,11.377688 2.48615385,11.4026939 2.48615385,11.4026939 C3.27384615,11.4527057 3.69230769,12.2528948 3.69230769,12.2528948 C4.40615385,13.5031901 5.58769231,13.1281015 6.03076923,12.9280543 C6.10461538,12.4029302 6.30153846,12.0278416 6.54769231,11.8277943 C4.77538462,11.6277471 2.90461538,10.9275817 2.90461538,7.77683729 C2.90461538,6.87662461 3.2,6.15145329 3.71692308,5.57631741 C3.64307692,5.37627015 3.37230769,4.52606929 3.79076923,3.40080344 C3.79076923,3.40080344 4.48,3.17575027 6.00615385,4.2510043 C6.64615385,4.05095704 7.31076923,3.97593932 8,3.97593932 C8.68923077,3.97593932 9.35384615,4.05095704 9.99384615,4.2510043 C11.52,3.17575027 12.2092308,3.40080344 12.2092308,3.40080344 C12.6276923,4.52606929 12.3569231,5.37627015 12.2830769,5.57631741 C12.8,6.15145329 13.0953846,6.87662461 13.0953846,7.77683729 C13.0953846,10.9275817 11.2246154,11.6277471 9.45230769,11.8277943 C9.74769231,12.0778534 9.99384615,12.5779716 9.99384615,13.3531547 C9.99384615,14.4284087 9.99384615,15.3286214 9.99384615,15.6036864 C9.99384615,15.8037337 10.1169231,16.0787986 10.5353846,15.978775 C13.7107692,14.903521 16,11.8277943 16,8.20193772 C16,3.67586843 12.4061538,0 8,0" id="Shape"></path>
                    </g>
                </g>
            </g>
        </g>
    </g>
</svg>
