<?xml version="1.0" encoding="UTF-8"?>
<svg width="16px" height="16px" viewBox="0 0 16 16" version="1.1" xmlns="http://www.w3.org/2000/svg" xmlns:xlink="http://www.w3.org/1999/xlink">
    <title>icon-rss-circle</title>
    <defs></defs>
    <g id="Symbols" stroke="none" stroke-width="1" fill="none" fill-rule="evenodd">
        <g id="Footer" transform="translate(-270.000000, -385.000000)" fill="#FFFFFF">
            <g id="Social_Icons">
                <g transform="translate(135.000000, 385.000000)">
                    <g id="icon-rss-circle" transform="translate(135.000000, 0.000000)">
                        <path d="M8,16 C3.581722,16 0,12.418278 0,8 C0,3.581722 3.581722,0 8,0 C12.418278,0 16,3.581722 16,8 C16,12.418278 12.418278,16 8,16 Z M3.50370414,3.5 L3.50370414,5.21766228 C7.5142286,5.22083725 10.7738711,8.4857714 10.7775753,12.5 L12.5,12.5 C12.4989417,10.019285 11.4903575,7.77140169 9.86106538,6.14052211 C8.23124412,4.51017168 5.98388993,3.50105833 3.50370414,3.5 Z M3.50105833,6.56067733 L3.50105833,8.27886877 C4.62235419,8.27939793 5.68438382,8.7201905 6.47759878,9.51552211 C7.27240122,10.3087371 7.71054798,11.3712959 7.71266463,12.4973542 L7.71266463,12.5 L9.43932267,12.5 C9.43773518,10.8627705 8.77204845,9.38005644 7.69626058,8.30373942 C6.62100188,7.22742239 5.1377587,6.56120649 3.50105833,6.56067733 Z M3.85030574,12.1401693 L3.85030574,12.1396402 L3.84977658,12.1396402 L3.85030574,12.1401693 Z M5.53992239,10.4569026 L5.53992239,10.4574318 L5.53992239,10.4569026 Z M5.53992239,10.4574318 C5.32296566,10.2404751 5.02504704,10.1065969 4.69484948,10.1065969 C4.36412277,10.1065969 4.06779163,10.2404751 3.85030574,10.4574318 L3.85030574,10.4569026 C3.63387817,10.6743885 3.5,10.9701905 3.5,11.2993297 C3.5,11.6279398 3.63387817,11.9232126 3.85030574,12.1396402 C4.06779163,12.3560677 4.36412277,12.4894167 4.69484948,12.4894167 C5.02504704,12.4894167 5.32296566,12.3565969 5.53992239,12.1401693 L5.54098071,12.1396402 C5.75793744,11.9232126 5.89075729,11.6274106 5.89181562,11.2993297 C5.89075729,10.9701905 5.75793744,10.6749177 5.53992239,10.4574318 Z" id="Combined-Shape"></path>
                    </g>
                </g>
            </g>
        </g>
    </g>
</svg>
