<?xml version="1.0" encoding="UTF-8"?>
<svg width="16px" height="16px" viewBox="0 0 16 16" version="1.1" xmlns="http://www.w3.org/2000/svg" xmlns:xlink="http://www.w3.org/1999/xlink">
    <title>icon-google-circle</title>
    <defs></defs>
    <g id="Symbols" stroke="none" stroke-width="1" fill="none" fill-rule="evenodd">
        <g id="Footer" transform="translate(-216.000000, -385.000000)" fill="#FFFFFF">
            <g id="Social_Icons">
                <g transform="translate(135.000000, 385.000000)">
                    <g id="icon-google-circle" transform="translate(81.000000, 0.000000)">
                        <path d="M8,16 C3.581722,16 0,12.418278 0,8 C0,3.581722 3.581722,0 8,0 C12.418278,0 16,3.581722 16,8 C16,12.418278 12.418278,16 8,16 Z M5.81818182,7.42857143 L5.81818182,8.8 L7.98363636,8.8 C7.89636364,9.38857143 7.32909091,10.5257143 5.81818182,10.5257143 C4.51454545,10.5257143 3.45090909,9.39428571 3.45090909,8 C3.45090909,6.60571429 4.51454545,5.47428571 5.81818182,5.47428571 C6.56,5.47428571 7.05636364,5.80571429 7.34,6.09142857 L8.37636364,5.04571429 C7.71090909,4.39428571 6.84909091,4 5.81818182,4 C3.70727273,4 2,5.78857143 2,8 C2,10.2114286 3.70727273,12 5.81818182,12 C8.02181818,12 9.48363636,10.3771429 9.48363636,8.09142857 C9.48363636,7.82857143 9.45636364,7.62857143 9.42363636,7.42857143 L5.81818182,7.42857143 Z M14,7.42857143 L12.9090909,7.42857143 L12.9090909,6.28571429 L11.8181818,6.28571429 L11.8181818,7.42857143 L10.7272727,7.42857143 L10.7272727,8.57142857 L11.8181818,8.57142857 L11.8181818,9.71428571 L12.9090909,9.71428571 L12.9090909,8.57142857 L14,8.57142857 L14,7.42857143 Z" id="Combined-Shape"></path>
                    </g>
                </g>
            </g>
        </g>
    </g>
</svg>
