<?xml version="1.0" encoding="UTF-8"?>
<svg width="16px" height="16px" viewBox="0 0 16 16" version="1.1" xmlns="http://www.w3.org/2000/svg" xmlns:xlink="http://www.w3.org/1999/xlink">
    <title>icon-facebook-circle</title>
    <defs></defs>
    <g id="Symbols" stroke="none" stroke-width="1" fill="none" fill-rule="evenodd">
        <g id="Footer" transform="translate(-189.000000, -385.000000)" fill="#FFFFFF">
            <g id="Social_Icons">
                <g transform="translate(135.000000, 385.000000)">
                    <g id="icon-facebook-circle" transform="translate(54.000000, 0.000000)">
                        <path d="M6.28540093,15.815829 C2.69106415,15.0309454 0,11.8297386 0,8 C0,3.581722 3.581722,0 8,0 C12.418278,0 16,3.581722 16,8 C16,12.1840081 12.7880349,15.6178214 8.69534487,15.9702 L8.69534487,9.6671311 L10.6029734,9.6671311 L10.745552,7.90226618 L8.69534487,7.90226618 L8.69534487,6.52450607 C8.69534487,6.0499905 9.1435535,5.88002513 9.64294419,5.88002513 C10.143066,5.88002513 10.6790154,6.02709721 10.6790154,6.02709721 L11,4.21991438 C11,4.21991438 10.3170851,4 8.69534487,4 C7.70021935,4 7.12113088,4.36004909 6.69997563,4.88867609 C6.2992932,5.38747242 6.28540093,6.19428763 6.28540093,6.716671 L6.28540093,7.90226618 L5,7.90226618 L5,9.6671311 L6.28540093,9.6671311 L6.28540093,15.815829 Z" id="Combined-Shape"></path>
                    </g>
                </g>
            </g>
        </g>
    </g>
</svg>
