<?xml version="1.0" encoding="utf-8"?>
<!-- Generator: Adobe Illustrator 18.0.0, SVG Export Plug-In . SVG Version: 6.00 Build 0)  -->
<!DOCTYPE svg PUBLIC "-//W3C//DTD SVG 1.1//EN" "http://www.w3.org/Graphics/SVG/1.1/DTD/svg11.dtd">
<svg version="1.1" id="Layer_1" xmlns="http://www.w3.org/2000/svg" xmlns:xlink="http://www.w3.org/1999/xlink" x="0px" y="0px"
	 viewBox="0 0 180 65" enable-background="new 0 0 180 65" xml:space="preserve">
<g>
	<path fill-rule="evenodd" clip-rule="evenodd" fill="#E5312E" d="M171,2.2c-1.8,0-3.3,1.5-3.3,3.3c0,0,0,0.1,0,0.1
		c-1.9,1-3.7,2.2-5.4,3.6c-2.9-2.5-6.6-4.1-10.7-4.1c-4.5,0-8.5,1.8-11.4,4.7c-1.6,1.6-2.8,3.4-3.6,5.5c-0.8-2.1-2-3.9-3.6-5.5
		c-2.9-2.9-7-4.7-11.4-4.7c-4.1,0-7.9,1.5-10.7,4.1c-1.6-1.4-3.4-2.6-5.4-3.6c0,0,0-0.1,0-0.1c0-1.8-1.5-3.3-3.3-3.3
		c-1.8,0-3.3,1.5-3.3,3.3c0,1.8,1.5,3.3,3.3,3.3c1,0,1.9-0.5,2.5-1.2c1.5,0.8,3.1,1.8,4.7,3c-2.5,2.8-4,6.6-4,10.6
		c0,4.5,1.8,8.5,4.7,11.4c2.9,2.9,7,4.7,11.4,4.7c4,0,7.6-1.5,10.5-3.9c0.5,1,0.8,2.3,0.7,4.2c-0.2,4-1.3,8.4-2.8,11.9
		c-10.5,2-18.1,8.2-15.6,9.4c3.4,1.7,5.3-1.6,8.8-0.4c3.9,1.2,1.9,4.3,5.8,4.3c3.6,0,5.1-1.7,7.1-2c0.2,0,0.4,0,0.6,0
		c0.2,0,0.3,0,0.5,0c2.1,0.2,3.6,2.1,7.2,2c3.9,0,1.9-3.1,5.8-4.3c3.5-1.1,5.4,2.2,8.8,0.4c2.5-1.2-5.1-7.4-15.6-9.4
		c-1.5-3.5-2.6-7.9-2.8-11.9c-0.1-1.9,0.2-3.2,0.7-4.2c2.8,2.4,6.5,3.9,10.5,3.9c4.5,0,8.5-1.8,11.4-4.7c2.9-2.9,4.7-7,4.7-11.4
		c0-4.1-1.5-7.8-4-10.6c1.6-1.2,3.2-2.2,4.7-3c0.6,0.7,1.5,1.2,2.5,1.2c1.8,0,3.3-1.5,3.3-3.3C174.4,3.7,172.9,2.2,171,2.2z"/>
	<circle fill-rule="evenodd" clip-rule="evenodd" fill="#FFFFFF" cx="151.4" cy="21.6" r="12.9"/>
	<circle fill-rule="evenodd" clip-rule="evenodd" fill="#FFFFFF" cx="122" cy="21.6" r="12.9"/>
	<path fill-rule="evenodd" clip-rule="evenodd" fill="#1D1D1B" d="M122,14.4c-3.5,0-6.3,2.8-6.3,6.3c0,3.5,2.8,6.3,6.3,6.3
		c3.5,0,6.3-2.8,6.3-6.3C128.3,17.3,125.5,14.4,122,14.4z"/>
	<path fill="#FFFFFF" d="M133.9,37.2c0.3,0.8,0.8,1.3,1.5,1.6c0.6,0.3,1.5,0.4,2.1,0.2c0.6-0.2,1.2-0.7,1.5-1.3
		c0.3-0.7,0.4-1.2,0.1-1.9c0-0.1-0.3,1.4-2.3,2C134.9,38.4,133.9,37.2,133.9,37.2z"/>
	<circle fill-rule="evenodd" clip-rule="evenodd" fill="#FFFFFF" cx="124.8" cy="16.5" r="2.1"/>
	<path fill-rule="evenodd" clip-rule="evenodd" fill="#1D1D1B" d="M151.5,14.4c-3.5,0-6.3,2.8-6.3,6.3c0,3.5,2.8,6.3,6.3,6.3
		c3.5,0,6.3-2.8,6.3-6.3C157.8,17.3,154.9,14.4,151.5,14.4z"/>
	<circle fill-rule="evenodd" clip-rule="evenodd" fill="#FFFFFF" cx="154.3" cy="16.5" r="2.1"/>
</g>
<g>
	<g>
		<path fill="#E5312E" d="M49.1,24.5c0,0.2,0,0.4,0,0.5c0,0.1,0,0.3,0,0.4c0,0.1,0,0.2-0.1,0.2c0,0.1-0.1,0.1-0.2,0.2
			c-0.1,0.1-0.3,0.2-0.5,0.3c-0.2,0.1-0.5,0.3-0.8,0.4c-0.3,0.1-0.6,0.2-1,0.3c-0.4,0.1-0.7,0.1-1.1,0.1c-0.9,0-1.6-0.1-2.3-0.4
			c-0.7-0.3-1.2-0.7-1.7-1.2s-0.8-1.2-1-1.9c-0.2-0.7-0.3-1.6-0.3-2.6c0-1.1,0.1-2.1,0.4-2.9c0.3-0.8,0.7-1.5,1.2-2
			c0.5-0.5,1.1-0.9,1.8-1.2c0.7-0.3,1.4-0.4,2.2-0.4c0.3,0,0.7,0,1,0.1c0.3,0.1,0.6,0.1,0.9,0.2c0.3,0.1,0.5,0.2,0.7,0.3
			c0.2,0.1,0.4,0.2,0.5,0.3c0.1,0.1,0.2,0.2,0.2,0.2c0,0.1,0.1,0.1,0.1,0.2c0,0.1,0,0.2,0.1,0.4c0,0.1,0,0.3,0,0.5
			c0,0.5,0,0.8-0.1,1c-0.1,0.2-0.2,0.3-0.3,0.3c-0.1,0-0.3-0.1-0.4-0.2c-0.2-0.1-0.3-0.2-0.6-0.4c-0.2-0.1-0.5-0.3-0.8-0.4
			c-0.3-0.1-0.7-0.2-1.1-0.2c-0.8,0-1.4,0.3-1.9,0.9c-0.4,0.6-0.6,1.5-0.6,2.8c0,0.6,0.1,1.1,0.2,1.6c0.1,0.5,0.3,0.8,0.5,1.1
			c0.2,0.3,0.5,0.5,0.8,0.7c0.3,0.2,0.7,0.2,1.1,0.2c0.4,0,0.8-0.1,1.1-0.2c0.3-0.1,0.6-0.3,0.8-0.4c0.2-0.2,0.4-0.3,0.6-0.4
			c0.2-0.1,0.3-0.2,0.4-0.2c0.1,0,0.1,0,0.2,0.1c0.1,0,0.1,0.1,0.1,0.2c0,0.1,0.1,0.3,0.1,0.4C49.1,24,49.1,24.2,49.1,24.5z"/>
		<path fill="#E5312E" d="M54,26.2c0,0.1,0,0.2-0.1,0.2s-0.1,0.1-0.3,0.2c-0.1,0-0.3,0.1-0.5,0.1c-0.2,0-0.5,0-0.8,0
			c-0.3,0-0.6,0-0.8,0c-0.2,0-0.4-0.1-0.5-0.1c-0.1,0-0.2-0.1-0.3-0.2c-0.1-0.1-0.1-0.1-0.1-0.2V9.8c0-0.1,0-0.2,0.1-0.2
			c0-0.1,0.1-0.1,0.3-0.2c0.1,0,0.3-0.1,0.5-0.1c0.2,0,0.5,0,0.8,0c0.3,0,0.6,0,0.8,0c0.2,0,0.4,0.1,0.5,0.1c0.1,0,0.2,0.1,0.3,0.2
			S54,9.7,54,9.8V26.2z"/>
		<path fill="#E5312E" d="M66.9,20.6c0,0.9-0.1,1.8-0.4,2.6c-0.3,0.8-0.6,1.5-1.1,2c-0.5,0.6-1.1,1-1.9,1.3
			c-0.8,0.3-1.7,0.5-2.7,0.5c-1,0-1.9-0.1-2.6-0.4c-0.7-0.3-1.3-0.7-1.8-1.2c-0.5-0.5-0.8-1.2-1.1-1.9c-0.2-0.8-0.3-1.6-0.3-2.6
			c0-0.9,0.1-1.8,0.4-2.6c0.3-0.8,0.6-1.5,1.1-2c0.5-0.6,1.1-1,1.9-1.3c0.8-0.3,1.7-0.5,2.7-0.5c1,0,1.9,0.1,2.6,0.4
			c0.7,0.3,1.3,0.7,1.8,1.2c0.5,0.5,0.8,1.2,1.1,1.9C66.8,18.7,66.9,19.6,66.9,20.6z M63.7,20.7c0-0.5,0-1.1-0.1-1.5
			c-0.1-0.5-0.2-0.9-0.4-1.2c-0.2-0.3-0.5-0.6-0.8-0.8c-0.3-0.2-0.8-0.3-1.3-0.3c-0.5,0-0.9,0.1-1.2,0.3c-0.3,0.2-0.6,0.4-0.9,0.7
			c-0.2,0.3-0.4,0.7-0.5,1.2c-0.1,0.5-0.2,1-0.2,1.6c0,0.5,0,1.1,0.1,1.5c0.1,0.5,0.2,0.9,0.4,1.2c0.2,0.3,0.5,0.6,0.8,0.8
			c0.3,0.2,0.8,0.3,1.3,0.3c0.5,0,0.9-0.1,1.2-0.3c0.3-0.2,0.6-0.4,0.9-0.7c0.2-0.3,0.4-0.7,0.5-1.2C63.6,21.8,63.7,21.3,63.7,20.7z
			"/>
		<path fill="#E5312E" d="M78.9,26.2c0,0.1,0,0.2-0.1,0.2c0,0.1-0.1,0.1-0.2,0.2c-0.1,0-0.2,0.1-0.4,0.1c-0.2,0-0.4,0-0.6,0
			c-0.3,0-0.5,0-0.7,0c-0.2,0-0.3-0.1-0.4-0.1c-0.1,0-0.2-0.1-0.2-0.2c0-0.1-0.1-0.1-0.1-0.2v-1.3c-0.6,0.7-1.2,1.2-1.9,1.5
			c-0.6,0.3-1.3,0.5-2,0.5c-0.8,0-1.4-0.1-1.9-0.4c-0.5-0.2-0.9-0.6-1.3-1c-0.3-0.4-0.5-0.9-0.7-1.5c-0.1-0.6-0.2-1.3-0.2-2.1v-6.8
			c0-0.1,0-0.2,0.1-0.2c0-0.1,0.1-0.1,0.2-0.2s0.3-0.1,0.5-0.1c0.2,0,0.5,0,0.8,0c0.3,0,0.6,0,0.8,0c0.2,0,0.4,0.1,0.5,0.1
			c0.1,0,0.2,0.1,0.3,0.2c0,0.1,0.1,0.1,0.1,0.2v6.3c0,0.6,0,1,0.1,1.3c0.1,0.3,0.2,0.6,0.3,0.8c0.2,0.2,0.4,0.4,0.6,0.5
			s0.5,0.2,0.8,0.2c0.4,0,0.8-0.1,1.2-0.4c0.4-0.3,0.8-0.7,1.3-1.3v-7.4c0-0.1,0-0.2,0.1-0.2c0-0.1,0.1-0.1,0.2-0.2
			c0.1,0,0.3-0.1,0.5-0.1c0.2,0,0.5,0,0.8,0c0.3,0,0.6,0,0.8,0c0.2,0,0.4,0.1,0.5,0.1c0.1,0,0.2,0.1,0.3,0.2
			c0.1,0.1,0.1,0.1,0.1,0.2V26.2z"/>
		<path fill="#E5312E" d="M91.1,26.2c0,0.1,0,0.2-0.1,0.2c0,0.1-0.1,0.1-0.2,0.2c-0.1,0-0.2,0.1-0.4,0.1c-0.2,0-0.4,0-0.6,0
			c-0.3,0-0.5,0-0.6,0c-0.2,0-0.3,0-0.4-0.1c-0.1,0-0.2-0.1-0.2-0.2c0-0.1-0.1-0.1-0.1-0.2V25c-0.6,0.6-1.2,1.1-1.8,1.4
			c-0.6,0.3-1.3,0.5-2.1,0.5c-0.8,0-1.6-0.2-2.2-0.5c-0.6-0.3-1.1-0.8-1.4-1.3c-0.4-0.6-0.6-1.2-0.8-2c-0.2-0.7-0.2-1.5-0.2-2.4
			c0-1,0.1-1.9,0.3-2.7c0.2-0.8,0.5-1.5,0.9-2c0.4-0.6,0.9-1,1.5-1.3c0.6-0.3,1.3-0.4,2.1-0.4c0.6,0,1.2,0.1,1.7,0.4
			c0.5,0.3,1,0.6,1.5,1.1v-6c0-0.1,0-0.2,0.1-0.2c0-0.1,0.1-0.1,0.2-0.2c0.1,0,0.3-0.1,0.5-0.1c0.2,0,0.5,0,0.8,0s0.6,0,0.8,0
			c0.2,0,0.4,0.1,0.5,0.1c0.1,0,0.2,0.1,0.2,0.2c0.1,0.1,0.1,0.1,0.1,0.2V26.2z M88,18.8c-0.4-0.6-0.9-1-1.3-1.3
			c-0.4-0.3-0.8-0.4-1.3-0.4c-0.4,0-0.8,0.1-1.1,0.3c-0.3,0.2-0.5,0.5-0.7,0.8c-0.2,0.3-0.3,0.7-0.4,1.1c-0.1,0.4-0.1,0.9-0.1,1.3
			c0,0.5,0,0.9,0.1,1.4c0.1,0.4,0.2,0.8,0.4,1.2c0.2,0.3,0.4,0.6,0.7,0.8c0.3,0.2,0.6,0.3,1.1,0.3c0.2,0,0.4,0,0.6-0.1
			c0.2-0.1,0.4-0.2,0.6-0.3c0.2-0.1,0.4-0.3,0.7-0.6c0.2-0.2,0.5-0.5,0.7-0.8V18.8z"/>
	</g>
	<path fill="#1D1D1B" d="M19.5,48.5c0,0.7,0,1.2-0.1,1.5c-0.1,0.4-0.2,0.6-0.3,0.8c-0.1,0.1-0.3,0.3-0.6,0.4
		c-0.3,0.1-0.6,0.2-0.9,0.3c-0.4,0.1-0.7,0.1-1.2,0.2c-0.4,0-0.8,0.1-1.3,0.1c-1.1,0-2.1-0.1-3-0.4c-0.8-0.3-1.5-0.7-2.1-1.3
		c-0.5-0.6-1-1.4-1.2-2.3c-0.3-0.9-0.4-2-0.4-3.3V33.9H5.9c-0.3,0-0.5-0.2-0.7-0.5C5.1,33,5,32.4,5,31.6c0-0.4,0-0.8,0.1-1.1
		c0-0.3,0.1-0.5,0.2-0.7c0.1-0.2,0.2-0.3,0.3-0.4s0.2-0.1,0.4-0.1h2.4v-4.6c0-0.2,0-0.3,0.1-0.4c0.1-0.1,0.2-0.2,0.5-0.3
		c0.2-0.1,0.5-0.1,0.9-0.2c0.4,0,0.8-0.1,1.4-0.1c0.6,0,1,0,1.4,0.1c0.4,0,0.7,0.1,0.9,0.2c0.2,0.1,0.4,0.2,0.5,0.3s0.1,0.3,0.1,0.4
		v4.6h4.4c0.2,0,0.3,0,0.4,0.1s0.2,0.2,0.3,0.4c0.1,0.2,0.1,0.4,0.2,0.7c0,0.3,0.1,0.7,0.1,1.1c0,0.8-0.1,1.4-0.2,1.8
		c-0.2,0.4-0.4,0.5-0.7,0.5h-4.5v9.6c0,1.1,0.2,2,0.5,2.5c0.4,0.6,1,0.8,1.9,0.8c0.3,0,0.6,0,0.8-0.1c0.2-0.1,0.5-0.1,0.7-0.2
		c0.2-0.1,0.4-0.1,0.5-0.2c0.1-0.1,0.2-0.1,0.4-0.1c0.1,0,0.2,0,0.3,0.1c0.1,0.1,0.1,0.2,0.2,0.3c0,0.2,0.1,0.4,0.1,0.7
		C19.4,47.7,19.5,48,19.5,48.5z"/>
	<path fill="#1D1D1B" d="M40.3,50.5c0,0.2,0,0.3-0.1,0.4s-0.2,0.2-0.5,0.3c-0.2,0.1-0.5,0.1-0.9,0.2c-0.4,0-0.8,0.1-1.4,0.1
		c-0.6,0-1,0-1.4-0.1c-0.4,0-0.7-0.1-0.9-0.2c-0.2-0.1-0.4-0.2-0.5-0.3c-0.1-0.1-0.1-0.2-0.1-0.4V38.8c0-1-0.1-1.8-0.2-2.3
		c-0.1-0.6-0.4-1.1-0.6-1.5s-0.6-0.7-1.1-0.9c-0.4-0.2-0.9-0.3-1.5-0.3c-0.7,0-1.5,0.3-2.2,0.8c-0.7,0.5-1.5,1.3-2.3,2.3v13.6
		c0,0.2,0,0.3-0.1,0.4c-0.1,0.1-0.2,0.2-0.5,0.3c-0.2,0.1-0.5,0.1-0.9,0.2c-0.4,0-0.8,0.1-1.4,0.1c-0.6,0-1,0-1.4-0.1
		c-0.4,0-0.7-0.1-0.9-0.2C21.2,51.1,21,51,21,50.9s-0.1-0.2-0.1-0.4V20.4c0-0.2,0-0.3,0.1-0.4c0.1-0.1,0.2-0.2,0.5-0.3
		c0.2-0.1,0.5-0.1,0.9-0.2c0.4,0,0.8-0.1,1.4-0.1c0.6,0,1,0,1.4,0.1c0.4,0,0.7,0.1,0.9,0.2c0.2,0.1,0.4,0.2,0.5,0.3
		c0.1,0.1,0.1,0.3,0.1,0.4v11.3c1-1,2-1.7,3-2.2c1-0.5,2.1-0.7,3.2-0.7c1.4,0,2.6,0.2,3.5,0.7c1,0.5,1.7,1.1,2.3,1.9
		c0.6,0.8,1,1.7,1.3,2.8c0.3,1.1,0.4,2.3,0.4,3.9V50.5z"/>
	<path fill="#1D1D1B" d="M48,50.5c0,0.2,0,0.3-0.1,0.4s-0.2,0.2-0.5,0.3c-0.2,0.1-0.5,0.1-0.9,0.2c-0.4,0-0.8,0.1-1.4,0.1
		c-0.6,0-1,0-1.4-0.1c-0.4,0-0.7-0.1-0.9-0.2c-0.2-0.1-0.4-0.2-0.5-0.3s-0.1-0.2-0.1-0.4V30.1c0-0.2,0-0.3,0.1-0.4
		c0.1-0.1,0.2-0.2,0.5-0.3c0.2-0.1,0.5-0.1,0.9-0.2s0.8-0.1,1.4-0.1c0.6,0,1,0,1.4,0.1s0.7,0.1,0.9,0.2c0.2,0.1,0.4,0.2,0.5,0.3
		c0.1,0.1,0.1,0.2,0.1,0.4V50.5z"/>
	<path fill="#1D1D1B" d="M69.5,50.5c0,0.2,0,0.3-0.1,0.4s-0.2,0.2-0.5,0.3c-0.2,0.1-0.5,0.1-0.9,0.2c-0.4,0-0.8,0.1-1.4,0.1
		c-0.6,0-1,0-1.4-0.1c-0.4,0-0.7-0.1-0.9-0.2c-0.2-0.1-0.4-0.2-0.5-0.3s-0.1-0.2-0.1-0.4V38.8c0-1-0.1-1.8-0.2-2.3
		c-0.1-0.6-0.4-1.1-0.6-1.5c-0.3-0.4-0.6-0.7-1.1-0.9c-0.4-0.2-0.9-0.3-1.5-0.3c-0.7,0-1.5,0.3-2.2,0.8c-0.7,0.5-1.5,1.3-2.3,2.3
		v13.6c0,0.2,0,0.3-0.1,0.4s-0.2,0.2-0.5,0.3c-0.2,0.1-0.5,0.1-0.9,0.2c-0.4,0-0.8,0.1-1.4,0.1c-0.6,0-1,0-1.4-0.1
		c-0.4,0-0.7-0.1-0.9-0.2c-0.2-0.1-0.4-0.2-0.5-0.3S50,50.6,50,50.5V30c0-0.2,0-0.3,0.1-0.4c0.1-0.1,0.2-0.2,0.4-0.3
		c0.2-0.1,0.5-0.1,0.8-0.2c0.3,0,0.7-0.1,1.2-0.1c0.5,0,0.9,0,1.2,0.1c0.3,0,0.6,0.1,0.7,0.2c0.2,0.1,0.3,0.2,0.4,0.3
		c0.1,0.1,0.1,0.2,0.1,0.4v2.4c1.1-1.2,2.3-2.1,3.4-2.7c1.2-0.6,2.4-0.9,3.7-0.9c1.4,0,2.6,0.2,3.5,0.7c1,0.5,1.7,1.1,2.3,1.9
		c0.6,0.8,1,1.7,1.3,2.8c0.3,1.1,0.4,2.3,0.4,3.8V50.5z"/>
	<path fill="#1D1D1B" d="M90.8,31.5c0,0.7-0.1,1.3-0.3,1.6c-0.2,0.4-0.4,0.5-0.6,0.5h-2.4c0.3,0.4,0.6,0.8,0.7,1.2
		c0.1,0.5,0.2,1,0.2,1.5c0,1.2-0.2,2.2-0.6,3.2c-0.4,0.9-1,1.7-1.7,2.3c-0.7,0.6-1.6,1.1-2.7,1.4c-1,0.3-2.2,0.5-3.5,0.5
		c-0.7,0-1.3-0.1-1.9-0.2c-0.6-0.2-1.1-0.3-1.4-0.6c-0.2,0.2-0.3,0.4-0.5,0.7C76.1,44,76,44.3,76,44.6c0,0.4,0.2,0.8,0.6,1.1
		c0.4,0.3,0.9,0.4,1.6,0.5l5,0.2c1.2,0,2.2,0.2,3.1,0.5c0.9,0.3,1.7,0.7,2.3,1.2c0.6,0.5,1.1,1.1,1.4,1.8c0.3,0.7,0.5,1.5,0.5,2.5
		c0,1-0.2,2-0.7,2.9c-0.4,0.9-1.1,1.7-2,2.3c-0.9,0.7-2,1.2-3.3,1.6c-1.3,0.4-2.9,0.6-4.7,0.6c-1.7,0-3.2-0.1-4.5-0.4
		c-1.2-0.3-2.2-0.7-3-1.1c-0.8-0.5-1.4-1.1-1.7-1.8c-0.4-0.7-0.5-1.4-0.5-2.2c0-0.5,0.1-1,0.2-1.4c0.1-0.5,0.3-0.9,0.6-1.3
		c0.3-0.4,0.6-0.8,0.9-1.2s0.8-0.7,1.3-1.1c-0.7-0.4-1.2-0.8-1.5-1.4c-0.4-0.6-0.5-1.3-0.5-2c0-0.9,0.2-1.7,0.6-2.5
		c0.4-0.7,0.9-1.4,1.6-2c-0.5-0.5-1-1.2-1.3-1.9c-0.3-0.7-0.5-1.7-0.5-2.8c0-1.2,0.2-2.3,0.6-3.2c0.4-0.9,1-1.7,1.8-2.4
		c0.7-0.6,1.6-1.1,2.7-1.5c1-0.3,2.2-0.5,3.4-0.5c0.6,0,1.3,0,1.8,0.1c0.6,0.1,1.1,0.2,1.6,0.3h6.5c0.3,0,0.5,0.2,0.6,0.5
		C90.7,30.1,90.8,30.7,90.8,31.5z M84.8,52.6c0-0.7-0.3-1.2-0.8-1.6s-1.3-0.6-2.3-0.6l-4.1-0.1c-0.4,0.3-0.7,0.6-1,0.8
		c-0.2,0.3-0.4,0.5-0.6,0.8c-0.1,0.2-0.2,0.5-0.3,0.7s-0.1,0.5-0.1,0.7c0,0.8,0.4,1.3,1.2,1.7c0.8,0.4,1.9,0.6,3.3,0.6
		c0.9,0,1.6-0.1,2.2-0.3c0.6-0.2,1.1-0.4,1.4-0.7s0.6-0.6,0.8-1C84.7,53.4,84.8,53,84.8,52.6z M83.4,36.3c0-1.1-0.3-2-0.9-2.6
		c-0.6-0.6-1.5-0.9-2.6-0.9c-0.6,0-1.1,0.1-1.5,0.3c-0.4,0.2-0.8,0.5-1.1,0.8c-0.3,0.3-0.5,0.7-0.6,1.1s-0.2,0.9-0.2,1.4
		c0,1,0.3,1.9,0.9,2.5c0.6,0.6,1.5,0.9,2.5,0.9c0.6,0,1.1-0.1,1.5-0.3c0.4-0.2,0.8-0.4,1.1-0.8c0.3-0.3,0.5-0.7,0.6-1.1
		C83.3,37.2,83.4,36.8,83.4,36.3z"/>
</g>
</svg>
