<?xml version="1.0" encoding="UTF-8" standalone="no"?>
<svg
   xmlns:dc="http://purl.org/dc/elements/1.1/"
   xmlns:cc="http://creativecommons.org/ns#"
   xmlns:rdf="http://www.w3.org/1999/02/22-rdf-syntax-ns#"
   xmlns:svg="http://www.w3.org/2000/svg"
   xmlns="http://www.w3.org/2000/svg"
   viewBox="0 0 1310.9867 165.54668"
   height="165.54668"
   width="1310.9867"
   xml:space="preserve"
   id="svg2"
   version="1.1"><metadata
     id="metadata8"><rdf:RDF><cc:Work
         rdf:about=""><dc:format>image/svg+xml</dc:format><dc:type
           rdf:resource="http://purl.org/dc/dcmitype/StillImage" /></cc:Work></rdf:RDF></metadata><defs
     id="defs6" /><g
     transform="matrix(1.3333333,0,0,-1.3333333,0,165.54667)"
     id="g10"><g
       transform="scale(0.1)"
       id="g12"><path
         id="path14"
         style="fill:#21467b;fill-opacity:1;fill-rule:nonzero;stroke:none"
         d="m 9542.18,492.117 h -287.89 c 12.78,41.297 30.1,72.481 51.86,93.289 34.27,33.547 74.62,50.285 121.01,50.285 40.21,0 70.45,-11.074 90.81,-33.293 20.32,-22.222 28.43,-58.953 24.21,-110.281 z m 271.99,125.305 c -22.02,56.98 -61.66,100.476 -119,130.516 -57.36,30.007 -140.61,45.019 -249.68,45.019 -134.5,0 -246.41,-33.527 -335.75,-100.508 -89.28,-67.004 -144.5,-154.621 -165.48,-262.988 -14.74,-76.145 -8.59,-142.395 18.53,-198.742 27.09,-56.297 67.12,-97.43 119.98,-123.278 52.86,-25.8824 129.83,-38.8707 230.82,-38.8707 116.23,0 208.44,15.1289 276.52,45.3597 68.11,30.261 130.88,80.191 188.43,149.769 l -283.2,24.16 c -22.21,-20.859 -42.01,-35.461 -59.41,-43.75 -28.39,-13.05 -56.96,-19.539 -85.69,-19.539 -45.44,0 -79.34,15 -101.78,45.02 -16.06,20.887 -22.55,52.613 -19.54,95.23 h 585.78 l 5.8,30.051 c 17.75,91.356 15.6,165.508 -6.33,222.551 z m -903.93,175.535 c -41.16,0 -77.54,-9.238 -109.07,-27.734 -31.58,-18.496 -65.32,-52.325 -101.18,-101.504 l 22.02,113.582 H 8448.57 L 8314.12,84.2305 h 293.59 l 45.01,232.3595 c 21.56,110.945 51.34,186.648 89.28,227.051 26.64,28.718 59.09,43.117 97.38,43.117 20.15,0 46.1,-6.582 78.02,-19.621 l 127.16,189.277 c -46.44,24.356 -91.28,36.543 -134.32,36.543 z M 8040.34,777.301 7905.97,84.2305 h 292.18 l 134.38,693.0705 z m 343.3,263.629 h -292.16 l -35.06,-180.778 h 292.16 z M 7481.23,835.359 h 477.41 l 39.82,205.571 H 7194.53 L 7008.96,84.2305 h 326.65 l 75.81,390.8825 h 407.68 l 37.49,193.203 H 7448.83 Z M 6656.34,370.711 c -6.42,-33.059 -17.45,-59.961 -33.2,-80.559 -15.7,-20.703 -38.99,-38.23 -69.78,-52.543 -30.78,-14.39 -62.44,-21.55 -94.97,-21.55 -31.1,0 -53.39,6.632 -66.86,19.882 -13.43,13.317 -18.11,30.375 -14.1,51.254 3.54,18.27 14.85,34.59 33.93,48.926 18.45,13.914 58.75,28.094 120.91,42.43 45.44,9.961 89.61,21.554 132.31,34.59 z m 273.79,353.066 c -29.92,28.282 -70.53,46.864 -121.95,55.801 -51.37,8.906 -120.85,13.379 -208.45,13.379 -54.6,0 -105.99,-3.723 -154.31,-11.094 -48.4,-7.414 -87.27,-17.859 -116.65,-31.328 -40.96,-18.722 -73.88,-40.781 -98.65,-66.25 -24.74,-25.449 -46.76,-60.344 -65.9,-104.719 l 274.1,-26.746 c 17.27,29.969 36.33,50.45 57.09,61.317 26.64,13.926 63.84,20.879 111.77,20.879 37.33,0 62.1,-6.512 74.4,-19.578 12.31,-13.04 15.27,-35.872 8.98,-68.497 -38.95,-13.078 -75.43,-23.64 -109.51,-31.66 -34.11,-8.027 -107.93,-22.101 -221.36,-42.121 -94.63,-16.531 -162.23,-41.746 -202.76,-75.672 -40.55,-33.925 -65.93,-77.226 -76.18,-129.824 -10.9,-56.144 3.57,-103.402 43.25,-141.695 39.74,-38.2581 104.98,-57.3987 195.95,-57.3987 68.44,0 130.35,9.5586 185.75,28.6992 40.56,14.4025 83.26,38.2815 128.04,71.8205 -0.56,-20.012 0,-34.75 1.52,-44.039 1.54,-9.371 6.11,-22.942 13.66,-40.8205 h 274.18 c -9.77,28.6995 -15.05,52.3285 -16.06,70.7895 -0.95,18.531 1.75,44.121 8.09,76.71 l 59.35,306.098 c 6.31,32.578 5.75,66.836 -1.58,102.746 -7.45,35.899 -21.71,63.621 -42.77,83.203 z M 5810.2,777.301 5675.82,84.2305 h 292.19 l 134.37,693.0705 z m 343.3,263.629 h -292.16 l -35.01,-180.778 h 292.11 z M 5335.26,432.762 c -11.65,-60.039 -32.53,-103.34 -62.57,-129.903 -29.98,-26.515 -63.64,-39.824 -100.98,-39.824 -34.93,0 -61.7,13.184 -80.31,39.473 -18.54,26.308 -22.35,67.812 -11.39,124.363 11.72,60.422 31.52,103.535 59.51,129.231 27.91,25.632 58.89,38.488 92.89,38.488 38.74,0 68.26,-13.41 88.41,-40.16 20.2,-26.766 24.95,-67.325 14.44,-121.668 z m 115.78,608.168 -64.32,-331.489 c -23.29,27.813 -52.12,48.7 -86.52,62.625 -34.41,13.918 -74.28,20.891 -119.8,20.891 -93.28,0 -176.14,-30.469 -248.33,-91.367 -72.37,-60.918 -119.69,-148.77 -141.92,-263.625 -19.96,-102.656 -9.48,-189.918 31.42,-261.715 40.87,-71.738 113.22,-107.6797 216.96,-107.6797 51.68,0 100.44,10.0391 146.49,30.0508 34.54,15.2579 75.15,44.5699 121.86,88.0589 L 5287.07,84.2305 h 273.45 L 5746.08,1040.93 Z M 4441.43,492.117 h -287.86 c 12.82,41.297 30.11,72.481 51.87,93.289 34.26,33.547 74.6,50.285 120.99,50.285 40.22,0 70.45,-11.074 90.81,-33.293 20.38,-22.222 28.41,-58.953 24.19,-110.281 z m 152.98,255.821 c -57.34,30.007 -140.52,45.019 -249.65,45.019 -134.48,0 -246.36,-33.527 -335.7,-100.508 -89.34,-67.004 -144.52,-154.621 -165.51,-262.988 -14.78,-76.145 -8.63,-142.395 18.52,-198.742 27.13,-56.297 67.11,-97.43 119.98,-123.278 52.9,-25.8824 129.8,-38.8707 230.81,-38.8707 116.29,0 208.47,15.1289 276.54,45.3597 68.1,30.261 130.89,80.191 188.4,149.769 l -283.13,24.16 c -22.26,-20.859 -42.08,-35.461 -59.48,-43.75 -28.37,-13.05 -56.91,-19.539 -85.61,-19.539 -45.49,0 -79.42,15 -101.84,45.02 -16.02,20.887 -22.54,52.613 -19.53,95.23 h 585.74 l 5.83,30.051 c 17.69,91.356 15.58,165.508 -6.39,222.551 -21.97,56.98 -61.63,100.476 -118.98,130.516 z M 3468.62,1040.93 3191.34,458.855 3139.14,1040.93 H 2711.31 L 2525.77,84.2305 h 266.31 l 141.5,729.5935 63.78,-729.5935 h 240.49 L 3585.37,813.824 3443.85,84.2305 h 265.62 l 185.54,956.6995 h -426.39" /><path
         id="path16"
         style="fill:#5391d4;fill-opacity:1;fill-rule:evenodd;stroke:none"
         d="m 0,440.711 c 148.727,343.84 363.059,217.598 476.676,389.773 49.996,75.801 -149.567,100.461 -239.645,-18.699 88.992,117.703 233.875,164.11 392.301,171.426 C 976.016,999.234 1292.49,809.078 1324.33,966.258 1357.4,1129.52 1026.49,1045 1074.29,1085.44 1436.88,1391.8 2318.71,1257.59 2312.61,591.402 2309.24,223.672 2033,-0.0507813 1595.13,0 1256.9,0.109375 996.547,279.598 650.824,318.648 401.422,346.824 852.051,331.004 763.098,469.969 682.262,596.375 429.355,618.094 276.797,594.762 55.1484,560.906 15.2344,475.906 0,440.711" /><path
         id="path18"
         style="fill:#ffffff;fill-opacity:1;fill-rule:nonzero;stroke:none"
         d="m 1081.66,607.172 c 0,6.406 136.6,-46.578 366.92,75.879 133.12,70.742 137.86,132.5 278.04,144.812 166.51,14.641 285.08,-108.73 285.08,-238.445 0,-129.742 -117.59,-235.973 -285.08,-231.324 -115.05,3.164 -231.33,49.277 -323.72,94.394 -227.56,111.035 -321.24,149.332 -321.24,154.684" /></g></g></svg>