<?xml version="1.0" encoding="UTF-8" standalone="no"?>
<svg width="575px" height="300px" viewBox="0 0 575 300" version="1.1" xmlns="http://www.w3.org/2000/svg" xmlns:xlink="http://www.w3.org/1999/xlink">
    <!-- Generator: Sketch 42 (36781) - http://www.bohemiancoding.com/sketch -->
    <title>pixel-pattern-bottom-left-dark</title>
    <desc>Created with Sketch.</desc>
    <defs></defs>
    <g id="UI" stroke="none" stroke-width="1" fill="none" fill-rule="evenodd" opacity="0.6">
        <g id="--Resources-&gt;-Home" transform="translate(0.000000, -4003.000000)" fill="#000000">
            <g id="Pre-footer-CTA" transform="translate(0.000000, 3916.000000)">
                <g id="pixel-pattern-bottom-left-dark" transform="translate(0.000000, 87.000000)">
                    <rect id="Square" opacity="0.12" x="0" y="275" width="25" height="25"></rect>
                    <rect id="Square" opacity="0.04" x="25" y="275" width="25" height="25"></rect>
                    <rect id="Square" opacity="0.08" x="50" y="275" width="25" height="25"></rect>
                    <rect id="Square" opacity="0.04" x="75" y="275" width="25" height="25"></rect>
                    <rect id="Square" opacity="0.08" x="125" y="275" width="25" height="25"></rect>
                    <rect id="Square" opacity="0.04" x="150" y="275" width="25" height="25"></rect>
                    <rect id="Square" opacity="0.12" x="175" y="275" width="25" height="25"></rect>
                    <rect id="Square" opacity="0.08" x="225" y="275" width="25" height="25"></rect>
                    <rect id="Square" opacity="0.04" x="375" y="275" width="25" height="25"></rect>
                    <rect id="Square" opacity="0.12" x="275" y="275" width="25" height="25"></rect>
                    <rect id="Square" opacity="0.04" x="0" y="250" width="25" height="25"></rect>
                    <rect id="Square" opacity="0.0399999991" x="50" y="250" width="25" height="25"></rect>
                    <rect id="Square" opacity="0.12" x="75" y="250" width="25" height="25"></rect>
                    <rect id="Square" opacity="0.04" x="125" y="250" width="25" height="25"></rect>
                    <rect id="Square" opacity="0.08" x="175" y="250" width="25" height="25"></rect>
                    <rect id="Square" opacity="0.0799999982" x="250" y="250" width="25" height="25"></rect>
                    <rect id="Square" opacity="0.12" x="325" y="275" width="25" height="25"></rect>
                    <rect id="Square" opacity="0.08" x="450" y="275" width="25" height="25"></rect>
                    <rect id="Square" opacity="0.08" x="500" y="275" width="25" height="25"></rect>
                    <rect id="Square" opacity="0.04" x="550" y="275" width="25" height="25"></rect>
                    <rect id="Square" opacity="0.12" x="300" y="225" width="25" height="25"></rect>
                    <rect id="Square" opacity="0.12" x="375" y="225" width="25" height="25"></rect>
                    <rect id="Square" opacity="0.04" x="425" y="225" width="25" height="25"></rect>
                    <rect id="Square" opacity="0.12" x="0" y="225" width="25" height="25"></rect>
                    <rect id="Square" opacity="0.04" x="25" y="225" width="25" height="25"></rect>
                    <rect id="Square" opacity="0.08" x="50" y="200" width="25" height="25"></rect>
                    <rect id="Square" opacity="0.08" x="100" y="225" width="25" height="25"></rect>
                    <rect id="Square" opacity="0.0399999991" x="150" y="225" width="25" height="25"></rect>
                    <rect id="Square" opacity="0.0399999991" x="225" y="225" width="25" height="25"></rect>
                    <rect id="Square" opacity="0.04" x="0" y="200" width="25" height="25"></rect>
                    <rect id="Square" opacity="0.12" x="50" y="150" width="25" height="25"></rect>
                    <rect id="Square" opacity="0.04" x="75" y="200" width="25" height="25"></rect>
                    <rect id="Square" opacity="0.04" x="125" y="200" width="25" height="25"></rect>
                    <rect id="Square" opacity="0.08" x="175" y="200" width="25" height="25"></rect>
                    <rect id="Square" opacity="0.08" x="325" y="200" width="25" height="25"></rect>
                    <rect id="Square" opacity="0.04" x="176" y="150" width="25" height="25"></rect>
                    <rect id="Square" opacity="0.08" x="25" y="175" width="25" height="25"></rect>
                    <rect id="Square" opacity="0.04" x="0" y="100" width="25" height="25"></rect>
                    <rect id="Square" opacity="0.08" x="50" y="100" width="25" height="25"></rect>
                    <rect id="Square" opacity="0.08" x="50" y="50" width="25" height="25"></rect>
                    <rect id="Square" opacity="0.12" x="0" y="50" width="25" height="25"></rect>
                    <rect id="Square" opacity="0.08" x="0" y="0" width="25" height="25"></rect>
                    <rect id="Square" opacity="0.08" x="126" y="150" width="25" height="25"></rect>
                    <rect id="Square" opacity="0.12" x="226" y="150" width="25" height="25"></rect>
                    <rect id="Square" opacity="0.12" x="0" y="150" width="25" height="25"></rect>
                    <rect id="Square" opacity="0.04" x="75" y="125" width="25" height="25"></rect>
                    <rect id="Square" opacity="0.04" x="125" y="75" width="25" height="25"></rect>
                </g>
            </g>
        </g>
    </g>
</svg>