
<svg width="290px" height="88px" viewBox="0 0 290 88" version="1.1" xmlns="http://www.w3.org/2000/svg" xmlns:xlink="http://www.w3.org/1999/xlink">
    <!-- Generator: Sketch 46.2 (44496) - http://www.bohemiancoding.com/sketch -->
    <desc>Created with Sketch.</desc>
    <defs>
        <linearGradient x1="100%" y1="100%" x2="0%" y2="0%" id="linearGradient-1">
            <stop stop-color="#CBD948" offset="0%"></stop>
            <stop stop-color="#29C770" offset="100%"></stop>
        </linearGradient>
    </defs>
    <g id="Hifi" stroke="none" stroke-width="1" fill="none" fill-rule="evenodd" opacity="0.15">
        <g id="our-customers-hifi" transform="translate(-250.000000, -3336.000000)" fill="url(#linearGradient-1)">
            <g id="Customer-Stats" transform="translate(0.000000, 3043.000000)">
                <g id="Stat" transform="translate(240.000000, 171.000000)">
                    <path d="M30.1544272,161.272429 L30.163468,161.272429 C39.0027347,156.084115 49.2934183,153.110071 60.2773028,153.110071 C70.9691553,153.110071 81.0041777,155.928073 89.6830357,160.863308 C98.5536407,166.10266 108.895138,169.108292 119.937199,169.108292 C130.688577,169.108292 140.775791,166.258824 149.487761,161.272429 L149.496801,161.272429 C158.336068,156.084115 168.626752,153.110071 179.610636,153.110071 C190.302489,153.110071 200.337511,155.928073 209.016369,160.863308 C217.886974,166.10266 228.228472,169.108292 239.270532,169.108292 C250.02191,169.108292 260.109124,166.258824 268.821094,161.272429 L268.830135,161.272429 C277.669401,156.084115 287.960085,153.110071 298.943969,153.110071 C309.635822,153.110071 319.670844,155.928073 328.349702,160.863308 C337.220307,166.10266 347.561805,169.108292 358.603866,169.108292 L358.610636,280.85098 L0.610636137,280.85098 L0.610636137,169.108291 C11.3594783,169.107095 21.444286,166.257777 30.1544272,161.272429 Z" id="Graph" transform="translate(179.610636, 216.980525) rotate(-375.000000) translate(-179.610636, -216.980525) "></path>
                </g>
            </g>
        </g>
    </g>
</svg>